# Blender 4.4.1
# www.blender.org
mtllib Car.mtl
o 立方体
v -0.770340 0.546227 -1.035694
v -0.269599 1.770131 -0.588410
v 0.838745 0.546227 -1.035694
v 0.364089 1.752516 -0.588637
v -0.770340 0.546227 0.901972
v -0.269599 1.770131 0.435515
v 0.838745 0.546227 0.901972
v 0.364089 1.752516 0.435287
v 0.762215 0.561957 1.405802
v 0.457189 0.568543 1.405802
v 0.762028 0.553324 1.488014
v 0.457003 0.559909 1.488014
v 0.761476 0.527753 1.567067
v 0.456451 0.534339 1.567067
v 0.760580 0.486230 1.639923
v 0.455554 0.492816 1.639923
v 0.759373 0.430348 1.703781
v 0.454347 0.436934 1.703781
v 0.757903 0.362257 1.756188
v 0.452877 0.368843 1.756188
v 0.756226 0.284572 1.795130
v 0.451200 0.291157 1.795130
v 0.754406 0.200278 1.819110
v 0.449380 0.206864 1.819110
v 0.752513 0.112616 1.827207
v 0.447487 0.119202 1.827207
v 0.750620 0.024954 1.819110
v 0.445594 0.031540 1.819110
v 0.748800 -0.059340 1.795130
v 0.443774 -0.052754 1.795130
v 0.747123 -0.137025 1.756188
v 0.442097 -0.130439 1.756188
v 0.745653 -0.205116 1.703781
v 0.440627 -0.198530 1.703781
v 0.744446 -0.260998 1.639923
v 0.439420 -0.254412 1.639923
v 0.743549 -0.302521 1.567067
v 0.438524 -0.295936 1.567067
v 0.742997 -0.328092 1.488014
v 0.437972 -0.321506 1.488014
v 0.742811 -0.336725 1.405802
v 0.437785 -0.330140 1.405802
v 0.742997 -0.328092 1.323591
v 0.437972 -0.321506 1.323591
v 0.743549 -0.302521 1.244538
v 0.438524 -0.295936 1.244538
v 0.744446 -0.260998 1.171683
v 0.439420 -0.254412 1.171683
v 0.745653 -0.205116 1.107825
v 0.440627 -0.198530 1.107825
v 0.747123 -0.137025 1.055417
v 0.442097 -0.130439 1.055417
v 0.748800 -0.059340 1.016475
v 0.443774 -0.052754 1.016475
v 0.750620 0.024954 0.992495
v 0.445594 0.031540 0.992495
v 0.752513 0.112616 0.984398
v 0.447487 0.119202 0.984398
v 0.754406 0.200278 0.992495
v 0.449380 0.206864 0.992495
v 0.756226 0.284572 1.016475
v 0.451200 0.291157 1.016475
v 0.757903 0.362257 1.055417
v 0.452877 0.368843 1.055417
v 0.759373 0.430348 1.107825
v 0.454347 0.436934 1.107825
v 0.760580 0.486230 1.171683
v 0.455554 0.492816 1.171683
v 0.761476 0.527753 1.244538
v 0.456451 0.534339 1.244538
v 0.762028 0.553324 1.323591
v 0.457003 0.559909 1.323591
v 0.898830 0.795378 -2.133300
v 0.898830 0.227083 -2.133300
v -0.898830 0.795378 -2.133300
v -0.898830 0.227083 -2.133300
v 0.898830 0.795378 2.133300
v 0.898830 0.227083 2.133300
v -0.898830 0.795378 2.133300
v -0.898830 0.227083 2.133300
v -0.437785 0.561957 1.405802
v -0.742811 0.568543 1.405802
v -0.437972 0.553324 1.492302
v -0.742997 0.559909 1.492302
v -0.438524 0.527753 1.575477
v -0.743549 0.534339 1.575477
v -0.439420 0.486230 1.652131
v -0.744446 0.492816 1.652131
v -0.440627 0.430348 1.719320
v -0.745652 0.436934 1.719320
v -0.442097 0.362257 1.774460
v -0.747123 0.368843 1.774460
v -0.443774 0.284572 1.815432
v -0.748800 0.291157 1.815432
v -0.445594 0.200278 1.840663
v -0.750620 0.206864 1.840663
v -0.447487 0.112616 1.849183
v -0.752513 0.119202 1.849183
v -0.449380 0.024954 1.840663
v -0.754405 0.031540 1.840663
v -0.451200 -0.059340 1.815432
v -0.756225 -0.052754 1.815432
v -0.452877 -0.137025 1.774460
v -0.757903 -0.130439 1.774460
v -0.454347 -0.205116 1.719320
v -0.759373 -0.198530 1.719320
v -0.455554 -0.260998 1.652131
v -0.760580 -0.254412 1.652131
v -0.456451 -0.302521 1.575477
v -0.761476 -0.295936 1.575477
v -0.457003 -0.328092 1.492302
v -0.762028 -0.321506 1.492302
v -0.457189 -0.336725 1.405802
v -0.762215 -0.330140 1.405802
v -0.457003 -0.328092 1.319304
v -0.762028 -0.321506 1.319304
v -0.456451 -0.302521 1.236128
v -0.761476 -0.295936 1.236128
v -0.455554 -0.260998 1.159474
v -0.760580 -0.254412 1.159474
v -0.454347 -0.205116 1.092286
v -0.759373 -0.198530 1.092286
v -0.452877 -0.137025 1.037146
v -0.757903 -0.130439 1.037146
v -0.451200 -0.059340 0.996173
v -0.756225 -0.052754 0.996173
v -0.449380 0.024954 0.970942
v -0.754405 0.031540 0.970942
v -0.447487 0.112616 0.962423
v -0.752513 0.119202 0.962423
v -0.445594 0.200278 0.970942
v -0.750620 0.206864 0.970942
v -0.443774 0.284572 0.996173
v -0.748800 0.291157 0.996173
v -0.442097 0.362257 1.037146
v -0.747123 0.368843 1.037146
v -0.440627 0.430348 1.092286
v -0.745652 0.436934 1.092286
v -0.439420 0.486230 1.159474
v -0.744446 0.492816 1.159474
v -0.438524 0.527753 1.236128
v -0.743549 0.534339 1.236128
v -0.437972 0.553324 1.319304
v -0.742997 0.559909 1.319304
v -0.437785 0.561957 -1.521066
v -0.742811 0.568543 -1.521066
v -0.437972 0.553324 -1.438854
v -0.742997 0.559909 -1.438854
v -0.438524 0.527753 -1.359802
v -0.743549 0.534339 -1.359802
v -0.439420 0.486230 -1.286946
v -0.744446 0.492816 -1.286946
v -0.440627 0.430348 -1.223088
v -0.745652 0.436934 -1.223088
v -0.442097 0.362257 -1.170681
v -0.747123 0.368843 -1.170681
v -0.443774 0.284572 -1.131739
v -0.748800 0.291157 -1.131739
v -0.445594 0.200278 -1.107759
v -0.750620 0.206864 -1.107759
v -0.447487 0.112616 -1.099661
v -0.752513 0.119202 -1.099661
v -0.449380 0.024954 -1.107759
v -0.754405 0.031540 -1.107759
v -0.451200 -0.059340 -1.131739
v -0.756225 -0.052754 -1.131739
v -0.452877 -0.137025 -1.170681
v -0.757903 -0.130439 -1.170681
v -0.454347 -0.205116 -1.223088
v -0.759373 -0.198530 -1.223088
v -0.455554 -0.260998 -1.286946
v -0.760580 -0.254412 -1.286946
v -0.456451 -0.302521 -1.359802
v -0.761476 -0.295936 -1.359802
v -0.457003 -0.328092 -1.438854
v -0.762028 -0.321506 -1.438854
v -0.457189 -0.336725 -1.521066
v -0.762215 -0.330140 -1.521066
v -0.457003 -0.328092 -1.603278
v -0.762028 -0.321506 -1.603278
v -0.456451 -0.302521 -1.682331
v -0.761476 -0.295936 -1.682331
v -0.455554 -0.260998 -1.755186
v -0.760580 -0.254412 -1.755186
v -0.454347 -0.205116 -1.819044
v -0.759373 -0.198530 -1.819044
v -0.452877 -0.137025 -1.871451
v -0.757903 -0.130439 -1.871451
v -0.451200 -0.059340 -1.910393
v -0.756225 -0.052754 -1.910393
v -0.449380 0.024954 -1.934374
v -0.754405 0.031540 -1.934374
v -0.447487 0.112616 -1.942471
v -0.752513 0.119202 -1.942471
v -0.445594 0.200278 -1.934374
v -0.750620 0.206864 -1.934374
v -0.443774 0.284572 -1.910393
v -0.748800 0.291157 -1.910393
v -0.442097 0.362257 -1.871451
v -0.747123 0.368843 -1.871451
v -0.440627 0.430348 -1.819044
v -0.745652 0.436934 -1.819044
v -0.439420 0.486230 -1.755186
v -0.744446 0.492816 -1.755186
v -0.438524 0.527753 -1.682331
v -0.743549 0.534339 -1.682331
v -0.437972 0.553324 -1.603278
v -0.742997 0.559909 -1.603278
v 0.762215 0.561957 -1.521066
v 0.457189 0.568543 -1.521066
v 0.762028 0.553324 -1.438854
v 0.457003 0.559909 -1.438854
v 0.761476 0.527753 -1.359802
v 0.456451 0.534339 -1.359802
v 0.760580 0.486230 -1.286946
v 0.455554 0.492816 -1.286946
v 0.759373 0.430348 -1.223088
v 0.454347 0.436934 -1.223088
v 0.757903 0.362257 -1.170681
v 0.452877 0.368843 -1.170681
v 0.756226 0.284572 -1.131739
v 0.451200 0.291157 -1.131739
v 0.754406 0.200278 -1.107759
v 0.449380 0.206864 -1.107759
v 0.752513 0.112616 -1.099661
v 0.447487 0.119202 -1.099661
v 0.750620 0.024954 -1.107759
v 0.445594 0.031540 -1.107759
v 0.748800 -0.059340 -1.131739
v 0.443774 -0.052754 -1.131739
v 0.747123 -0.137025 -1.170681
v 0.442097 -0.130439 -1.170681
v 0.745653 -0.205116 -1.223088
v 0.440627 -0.198530 -1.223088
v 0.744446 -0.260998 -1.286946
v 0.439420 -0.254412 -1.286946
v 0.743549 -0.302521 -1.359802
v 0.438524 -0.295936 -1.359802
v 0.742997 -0.328092 -1.438854
v 0.437972 -0.321506 -1.438854
v 0.742811 -0.336725 -1.521066
v 0.437785 -0.330140 -1.521066
v 0.742997 -0.328092 -1.603278
v 0.437972 -0.321506 -1.603278
v 0.743549 -0.302521 -1.682331
v 0.438524 -0.295936 -1.682331
v 0.744446 -0.260998 -1.755186
v 0.439420 -0.254412 -1.755186
v 0.745653 -0.205116 -1.819044
v 0.440627 -0.198530 -1.819044
v 0.747123 -0.137025 -1.871451
v 0.442097 -0.130439 -1.871451
v 0.748800 -0.059340 -1.910393
v 0.443774 -0.052754 -1.910393
v 0.750620 0.024954 -1.934374
v 0.445594 0.031540 -1.934374
v 0.752513 0.112616 -1.942471
v 0.447487 0.119202 -1.942471
v 0.754406 0.200278 -1.934374
v 0.449380 0.206864 -1.934374
v 0.756226 0.284572 -1.910393
v 0.451200 0.291157 -1.910393
v 0.757903 0.362257 -1.871451
v 0.452877 0.368843 -1.871451
v 0.759373 0.430348 -1.819044
v 0.454347 0.436934 -1.819044
v 0.760580 0.486230 -1.755186
v 0.455554 0.492816 -1.755186
v 0.761476 0.527753 -1.682331
v 0.456451 0.534339 -1.682331
v 0.762028 0.553324 -1.603278
v 0.457003 0.559909 -1.603278
v -0.770340 0.546227 -1.035694
v -0.269599 1.770131 -0.588410
v 0.838745 0.546227 -1.035694
v 0.364089 1.752516 -0.588637
v -0.770340 0.546227 0.901972
v -0.269599 1.770131 0.435515
v 0.838745 0.546227 0.901972
v 0.364089 1.752516 0.435287
v 0.762215 0.561957 1.405802
v 0.457189 0.568543 1.405802
v 0.762028 0.553324 1.488014
v 0.457003 0.559909 1.488014
v 0.761476 0.527753 1.567067
v 0.456451 0.534339 1.567067
v 0.760580 0.486230 1.639923
v 0.455554 0.492816 1.639923
v 0.759373 0.430348 1.703781
v 0.454347 0.436934 1.703781
v 0.757903 0.362257 1.756188
v 0.452877 0.368843 1.756188
v 0.756226 0.284572 1.795130
v 0.451200 0.291157 1.795130
v 0.754406 0.200278 1.819110
v 0.449380 0.206864 1.819110
v 0.752513 0.112616 1.827207
v 0.447487 0.119202 1.827207
v 0.750620 0.024954 1.819110
v 0.445594 0.031540 1.819110
v 0.748800 -0.059340 1.795130
v 0.443774 -0.052754 1.795130
v 0.747123 -0.137025 1.756188
v 0.442097 -0.130439 1.756188
v 0.745653 -0.205116 1.703781
v 0.440627 -0.198530 1.703781
v 0.744446 -0.260998 1.639923
v 0.439420 -0.254412 1.639923
v 0.743549 -0.302521 1.567067
v 0.438524 -0.295936 1.567067
v 0.742997 -0.328092 1.488014
v 0.437972 -0.321506 1.488014
v 0.742811 -0.336725 1.405802
v 0.437785 -0.330140 1.405802
v 0.742997 -0.328092 1.323591
v 0.437972 -0.321506 1.323591
v 0.743549 -0.302521 1.244538
v 0.438524 -0.295936 1.244538
v 0.744446 -0.260998 1.171683
v 0.439420 -0.254412 1.171683
v 0.745653 -0.205116 1.107825
v 0.440627 -0.198530 1.107825
v 0.747123 -0.137025 1.055417
v 0.442097 -0.130439 1.055417
v 0.748800 -0.059340 1.016475
v 0.443774 -0.052754 1.016475
v 0.750620 0.024954 0.992495
v 0.445594 0.031540 0.992495
v 0.752513 0.112616 0.984398
v 0.447487 0.119202 0.984398
v 0.754406 0.200278 0.992495
v 0.449380 0.206864 0.992495
v 0.756226 0.284572 1.016475
v 0.451200 0.291157 1.016475
v 0.757903 0.362257 1.055417
v 0.452877 0.368843 1.055417
v 0.759373 0.430348 1.107825
v 0.454347 0.436934 1.107825
v 0.760580 0.486230 1.171683
v 0.455554 0.492816 1.171683
v 0.761476 0.527753 1.244538
v 0.456451 0.534339 1.244538
v 0.762028 0.553324 1.323591
v 0.457003 0.559909 1.323591
v 0.898830 0.795378 -2.133300
v 0.898830 0.227083 -2.133300
v -0.898830 0.795378 -2.133300
v -0.898830 0.227083 -2.133300
v 0.898830 0.795378 2.133300
v 0.898830 0.227083 2.133300
v -0.898830 0.795378 2.133300
v -0.898830 0.227083 2.133300
v -0.437785 0.561957 1.405802
v -0.742811 0.568543 1.405802
v -0.437972 0.553324 1.492302
v -0.742997 0.559909 1.492302
v -0.438524 0.527753 1.575477
v -0.743549 0.534339 1.575477
v -0.439420 0.486230 1.652131
v -0.744446 0.492816 1.652131
v -0.440627 0.430348 1.719320
v -0.745652 0.436934 1.719320
v -0.442097 0.362257 1.774460
v -0.747123 0.368843 1.774460
v -0.443774 0.284572 1.815432
v -0.748800 0.291157 1.815432
v -0.445594 0.200278 1.840663
v -0.750620 0.206864 1.840663
v -0.447487 0.112616 1.849183
v -0.752513 0.119202 1.849183
v -0.449380 0.024954 1.840663
v -0.754405 0.031540 1.840663
v -0.451200 -0.059340 1.815432
v -0.756225 -0.052754 1.815432
v -0.452877 -0.137025 1.774460
v -0.757903 -0.130439 1.774460
v -0.454347 -0.205116 1.719320
v -0.759373 -0.198530 1.719320
v -0.455554 -0.260998 1.652131
v -0.760580 -0.254412 1.652131
v -0.456451 -0.302521 1.575477
v -0.761476 -0.295936 1.575477
v -0.457003 -0.328092 1.492302
v -0.762028 -0.321506 1.492302
v -0.457189 -0.336725 1.405802
v -0.762215 -0.330140 1.405802
v -0.457003 -0.328092 1.319304
v -0.762028 -0.321506 1.319304
v -0.456451 -0.302521 1.236128
v -0.761476 -0.295936 1.236128
v -0.455554 -0.260998 1.159474
v -0.760580 -0.254412 1.159474
v -0.454347 -0.205116 1.092286
v -0.759373 -0.198530 1.092286
v -0.452877 -0.137025 1.037146
v -0.757903 -0.130439 1.037146
v -0.451200 -0.059340 0.996173
v -0.756225 -0.052754 0.996173
v -0.449380 0.024954 0.970942
v -0.754405 0.031540 0.970942
v -0.447487 0.112616 0.962423
v -0.752513 0.119202 0.962423
v -0.445594 0.200278 0.970942
v -0.750620 0.206864 0.970942
v -0.443774 0.284572 0.996173
v -0.748800 0.291157 0.996173
v -0.442097 0.362257 1.037146
v -0.747123 0.368843 1.037146
v -0.440627 0.430348 1.092286
v -0.745652 0.436934 1.092286
v -0.439420 0.486230 1.159474
v -0.744446 0.492816 1.159474
v -0.438524 0.527753 1.236128
v -0.743549 0.534339 1.236128
v -0.437972 0.553324 1.319304
v -0.742997 0.559909 1.319304
v -0.437785 0.561957 -1.521066
v -0.742811 0.568543 -1.521066
v -0.437972 0.553324 -1.438854
v -0.742997 0.559909 -1.438854
v -0.438524 0.527753 -1.359802
v -0.743549 0.534339 -1.359802
v -0.439420 0.486230 -1.286946
v -0.744446 0.492816 -1.286946
v -0.440627 0.430348 -1.223088
v -0.745652 0.436934 -1.223088
v -0.442097 0.362257 -1.170681
v -0.747123 0.368843 -1.170681
v -0.443774 0.284572 -1.131739
v -0.748800 0.291157 -1.131739
v -0.445594 0.200278 -1.107759
v -0.750620 0.206864 -1.107759
v -0.447487 0.112616 -1.099661
v -0.752513 0.119202 -1.099661
v -0.449380 0.024954 -1.107759
v -0.754405 0.031540 -1.107759
v -0.451200 -0.059340 -1.131739
v -0.756225 -0.052754 -1.131739
v -0.452877 -0.137025 -1.170681
v -0.757903 -0.130439 -1.170681
v -0.454347 -0.205116 -1.223088
v -0.759373 -0.198530 -1.223088
v -0.455554 -0.260998 -1.286946
v -0.760580 -0.254412 -1.286946
v -0.456451 -0.302521 -1.359802
v -0.761476 -0.295936 -1.359802
v -0.457003 -0.328092 -1.438854
v -0.762028 -0.321506 -1.438854
v -0.457189 -0.336725 -1.521066
v -0.762215 -0.330140 -1.521066
v -0.457003 -0.328092 -1.603278
v -0.762028 -0.321506 -1.603278
v -0.456451 -0.302521 -1.682331
v -0.761476 -0.295936 -1.682331
v -0.455554 -0.260998 -1.755186
v -0.760580 -0.254412 -1.755186
v -0.454347 -0.205116 -1.819044
v -0.759373 -0.198530 -1.819044
v -0.452877 -0.137025 -1.871451
v -0.757903 -0.130439 -1.871451
v -0.451200 -0.059340 -1.910393
v -0.756225 -0.052754 -1.910393
v -0.449380 0.024954 -1.934374
v -0.754405 0.031540 -1.934374
v -0.447487 0.112616 -1.942471
v -0.752513 0.119202 -1.942471
v -0.445594 0.200278 -1.934374
v -0.750620 0.206864 -1.934374
v -0.443774 0.284572 -1.910393
v -0.748800 0.291157 -1.910393
v -0.442097 0.362257 -1.871451
v -0.747123 0.368843 -1.871451
v -0.440627 0.430348 -1.819044
v -0.745652 0.436934 -1.819044
v -0.439420 0.486230 -1.755186
v -0.744446 0.492816 -1.755186
v -0.438524 0.527753 -1.682331
v -0.743549 0.534339 -1.682331
v -0.437972 0.553324 -1.603278
v -0.742997 0.559909 -1.603278
v 0.762215 0.561957 -1.521066
v 0.457189 0.568543 -1.521066
v 0.762028 0.553324 -1.438854
v 0.457003 0.559909 -1.438854
v 0.761476 0.527753 -1.359802
v 0.456451 0.534339 -1.359802
v 0.760580 0.486230 -1.286946
v 0.455554 0.492816 -1.286946
v 0.759373 0.430348 -1.223088
v 0.454347 0.436934 -1.223088
v 0.757903 0.362257 -1.170681
v 0.452877 0.368843 -1.170681
v 0.756226 0.284572 -1.131739
v 0.451200 0.291157 -1.131739
v 0.754406 0.200278 -1.107759
v 0.449380 0.206864 -1.107759
v 0.752513 0.112616 -1.099661
v 0.447487 0.119202 -1.099661
v 0.750620 0.024954 -1.107759
v 0.445594 0.031540 -1.107759
v 0.748800 -0.059340 -1.131739
v 0.443774 -0.052754 -1.131739
v 0.747123 -0.137025 -1.170681
v 0.442097 -0.130439 -1.170681
v 0.745653 -0.205116 -1.223088
v 0.440627 -0.198530 -1.223088
v 0.744446 -0.260998 -1.286946
v 0.439420 -0.254412 -1.286946
v 0.743549 -0.302521 -1.359802
v 0.438524 -0.295936 -1.359802
v 0.742997 -0.328092 -1.438854
v 0.437972 -0.321506 -1.438854
v 0.742811 -0.336725 -1.521066
v 0.437785 -0.330140 -1.521066
v 0.742997 -0.328092 -1.603278
v 0.437972 -0.321506 -1.603278
v 0.743549 -0.302521 -1.682331
v 0.438524 -0.295936 -1.682331
v 0.744446 -0.260998 -1.755186
v 0.439420 -0.254412 -1.755186
v 0.745653 -0.205116 -1.819044
v 0.440627 -0.198530 -1.819044
v 0.747123 -0.137025 -1.871451
v 0.442097 -0.130439 -1.871451
v 0.748800 -0.059340 -1.910393
v 0.443774 -0.052754 -1.910393
v 0.750620 0.024954 -1.934374
v 0.445594 0.031540 -1.934374
v 0.752513 0.112616 -1.942471
v 0.447487 0.119202 -1.942471
v 0.754406 0.200278 -1.934374
v 0.449380 0.206864 -1.934374
v 0.756226 0.284572 -1.910393
v 0.451200 0.291157 -1.910393
v 0.757903 0.362257 -1.871451
v 0.452877 0.368843 -1.871451
v 0.759373 0.430348 -1.819044
v 0.454347 0.436934 -1.819044
v 0.760580 0.486230 -1.755186
v 0.455554 0.492816 -1.755186
v 0.761476 0.527753 -1.682331
v 0.456451 0.534339 -1.682331
v 0.762028 0.553324 -1.603278
v 0.457003 0.559909 -1.603278
vn -0.0000 0.3475 -0.9377
vn 0.9306 0.3662 -0.0000
vn -0.0000 0.3608 0.9326
vn -0.9255 0.3787 -0.0000
vn -0.0000 -1.0000 -0.0000
vn 0.0278 0.9996 -0.0000
vn 0.0215 0.9943 0.1045
vn 0.0205 0.9512 0.3078
vn 0.0188 0.8685 0.4953
vn 0.0162 0.7523 0.6586
vn 0.0132 0.6097 0.7925
vn 0.0097 0.4479 0.8940
vn 0.0059 0.2735 0.9619
vn 0.0020 0.0919 0.9958
vn -0.0020 -0.0919 0.9958
vn -0.0059 -0.2735 0.9619
vn -0.0097 -0.4479 0.8940
vn -0.0132 -0.6097 0.7925
vn -0.0162 -0.7523 0.6586
vn -0.0188 -0.8685 0.4953
vn -0.0205 -0.9512 0.3078
vn -0.0215 -0.9943 0.1045
vn -0.0215 -0.9943 -0.1045
vn -0.0205 -0.9512 -0.3078
vn -0.0188 -0.8685 -0.4953
vn -0.0162 -0.7523 -0.6586
vn -0.0132 -0.6097 -0.7925
vn -0.0097 -0.4479 -0.8940
vn -0.0059 -0.2735 -0.9619
vn -0.0020 -0.0919 -0.9958
vn 0.0020 0.0919 -0.9958
vn 0.0059 0.2735 -0.9619
vn 0.0097 0.4479 -0.8940
vn 0.0132 0.6097 -0.7925
vn 0.0162 0.7523 -0.6586
vn 0.0188 0.8685 -0.4953
vn -0.9998 0.0216 -0.0000
vn 0.0205 0.9512 -0.3078
vn 0.0215 0.9943 -0.1045
vn 0.9998 -0.0216 -0.0000
vn 1.0000 -0.0000 -0.0000
vn -0.0000 -0.0000 -1.0000
vn -0.0000 1.0000 -0.0000
vn -0.0000 -0.0000 1.0000
vn -1.0000 -0.0000 -0.0000
vn 0.0215 0.9948 0.0993
vn 0.0206 0.9556 0.2939
vn 0.0190 0.8790 0.4764
vn 0.0166 0.7686 0.6395
vn 0.0136 0.6291 0.7772
vn 0.0101 0.4663 0.8846
vn 0.0062 0.2866 0.9580
vn 0.0021 0.0967 0.9953
vn -0.0021 -0.0967 0.9953
vn -0.0062 -0.2866 0.9580
vn -0.0101 -0.4663 0.8846
vn -0.0136 -0.6291 0.7772
vn -0.0166 -0.7686 0.6395
vn -0.0190 -0.8790 0.4764
vn -0.0206 -0.9556 0.2939
vn -0.0215 -0.9948 0.0993
vn -0.0215 -0.9948 -0.0993
vn -0.0206 -0.9556 -0.2939
vn -0.0190 -0.8790 -0.4764
vn -0.0166 -0.7686 -0.6395
vn -0.0136 -0.6291 -0.7772
vn -0.0101 -0.4663 -0.8846
vn -0.0062 -0.2866 -0.9580
vn -0.0021 -0.0967 -0.9953
vn 0.0021 0.0967 -0.9953
vn 0.0062 0.2866 -0.9580
vn 0.0101 0.4663 -0.8846
vn 0.0136 0.6291 -0.7772
vn 0.0166 0.7686 -0.6395
vn 0.0190 0.8790 -0.4764
vn 0.0206 0.9556 -0.2939
vn 0.0215 0.9948 -0.0993
vn 0.0079 0.3408 -0.9401
vn 0.0089 0.3397 -0.9405
vn 0.0100 0.3523 0.9358
vn 0.0088 0.3535 0.9354
vn 0.0188 0.8686 0.4952
vn 0.0188 0.8685 0.4952
vn -0.0188 -0.8685 0.4952
vn -0.0188 -0.8686 0.4952
vn 0.0059 0.2735 -0.9618
vn 0.0188 0.8685 -0.4952
vn 0.0091 0.3399 -0.9404
vn 0.0101 0.3525 0.9358
vn 0.9998 -0.0217 -0.0000
vn 0.9998 -0.0215 -0.0000
vn -0.9998 0.0215 -0.0000
vn -0.9998 0.0216 0.0001
vn -0.9998 0.0216 -0.0001
vt 0.185287 0.575091
vt 0.371970 0.745410
vt 0.185287 0.816665
vt 0.719594 0.788237
vt 0.530095 0.585875
vt 0.719594 0.521674
vt 0.001141 0.745508
vt 0.188257 0.574853
vt 0.188257 0.816903
vt 0.530321 0.461894
vt 0.724118 0.260059
vt 0.724118 0.525887
vt 0.532741 0.001121
vt 0.768681 0.260861
vt 0.532741 0.260861
vt 0.889551 0.137841
vt 0.982515 0.000629
vt 0.982515 0.137872
vt 0.948426 0.959712
vt 0.996426 0.971534
vt 0.948426 0.971534
vt 0.996423 0.982901
vt 0.948424 0.982901
vt 0.996420 0.993377
vt 0.948421 0.993377
vt 0.996416 1.002560
vt 0.948416 1.002560
vt 0.894329 0.526539
vt 0.940783 0.537227
vt 0.894328 0.537279
vt 0.940782 0.549443
vt 0.894327 0.549495
vt 0.940782 0.562665
vt 0.894326 0.562717
vt 0.940782 0.576385
vt 0.894326 0.576438
vt 0.940782 0.590076
vt 0.894326 0.590129
vt 0.940782 0.603212
vt 0.894327 0.603264
vt 0.940783 0.615287
vt 0.894328 0.615340
vt 0.940784 0.625839
vt 0.894329 0.625891
vt 0.938688 0.525342
vt 0.986694 0.534525
vt 0.938695 0.534525
vt 0.986699 0.545001
vt 0.938699 0.545001
vt 0.986702 0.556368
vt 0.938702 0.556368
vt 0.986703 0.568190
vt 0.938703 0.568190
vt 0.938702 0.580012
vt 0.986702 0.580012
vt 0.938699 0.591379
vt 0.986699 0.591379
vt 0.938695 0.601855
vt 0.986694 0.601855
vt 0.938688 0.611038
vt 0.458934 0.771377
vt 0.505390 0.760874
vt 0.505389 0.771429
vt 0.458935 0.760822
vt 0.505391 0.748796
vt 0.458936 0.748743
vt 0.505391 0.735659
vt 0.458936 0.735606
vt 0.505392 0.721967
vt 0.458936 0.721914
vt 0.505391 0.708247
vt 0.458936 0.708195
vt 0.505391 0.695027
vt 0.458936 0.694974
vt 0.505390 0.682813
vt 0.458935 0.682761
vt 0.505389 0.672077
vt 0.996416 0.916864
vt 0.948421 0.926047
vt 0.948416 0.916864
vt 0.996420 0.926047
vt 0.948424 0.936523
vt 0.300352 0.946845
vt 0.229749 0.904315
vt 0.267487 0.818781
vt 0.996423 0.936523
vt 0.948426 0.947890
vt 0.996426 0.947890
vt 0.446516 0.975820
vt 0.375888 0.928355
vt 0.413639 0.845497
vt 0.001137 0.002468
vt 0.264728 0.574398
vt 0.001137 0.574398
vt 0.723067 0.836502
vt 0.808582 0.264327
vt 0.808582 0.836502
vt 0.459223 0.578012
vt 0.373666 0.841639
vt 0.373666 0.578012
vt 0.267000 0.002464
vt 0.530587 0.574401
vt 0.267000 0.574401
vt 0.895360 0.526756
vt 0.980917 0.263128
vt 0.980917 0.526756
vt 0.809242 0.836769
vt 0.894678 0.264061
vt 0.894678 0.836769
vt 0.649883 0.924909
vt 0.697608 0.937276
vt 0.649882 0.937276
vt 0.697606 0.949168
vt 0.649880 0.949168
vt 0.697602 0.960127
vt 0.649877 0.960127
vt 0.697598 0.969733
vt 0.649873 0.969733
vt 0.650427 0.784405
vt 0.697048 0.795136
vt 0.650426 0.795189
vt 0.697047 0.807399
vt 0.650425 0.807452
vt 0.697047 0.820671
vt 0.650425 0.820724
vt 0.697047 0.834441
vt 0.650424 0.834494
vt 0.697047 0.848181
vt 0.650425 0.848234
vt 0.697047 0.861362
vt 0.650425 0.861414
vt 0.697048 0.873477
vt 0.650426 0.873530
vt 0.697050 0.884061
vt 0.650427 0.884114
vt 0.893691 0.718613
vt 0.941422 0.728219
vt 0.893697 0.728219
vt 0.941427 0.739179
vt 0.893702 0.739179
vt 0.941430 0.751071
vt 0.893704 0.751071
vt 0.941431 0.763438
vt 0.893705 0.763438
vt 0.893704 0.775805
vt 0.941430 0.775805
vt 0.893702 0.787697
vt 0.941427 0.787697
vt 0.893697 0.798656
vt 0.941422 0.798656
vt 0.893691 0.808263
vt 0.458850 0.674981
vt 0.505473 0.664446
vt 0.505472 0.675034
vt 0.458851 0.664393
vt 0.505474 0.652327
vt 0.458852 0.652275
vt 0.505475 0.639145
vt 0.458853 0.639092
vt 0.505475 0.625405
vt 0.458853 0.625352
vt 0.505475 0.611635
vt 0.458853 0.611583
vt 0.505474 0.598365
vt 0.458852 0.598312
vt 0.505473 0.586105
vt 0.458851 0.586052
vt 0.505472 0.575324
vt 0.697598 0.880084
vt 0.649877 0.889690
vt 0.649873 0.880084
vt 0.697602 0.889690
vt 0.649880 0.900650
vt 0.846705 0.132097
vt 0.772447 0.088934
vt 0.812139 0.003699
vt 0.697606 0.900650
vt 0.649882 0.912542
vt 0.697608 0.912542
vt 0.608736 0.918836
vt 0.534451 0.871972
vt 0.574157 0.788754
vt 0.938710 0.761337
vt 0.986709 0.773159
vt 0.938709 0.773159
vt 0.986707 0.784526
vt 0.938707 0.784526
vt 0.986704 0.795003
vt 0.938704 0.795003
vt 0.986699 0.804185
vt 0.938700 0.804185
vt 0.888487 0.137107
vt 0.934941 0.147795
vt 0.888486 0.147848
vt 0.934940 0.160011
vt 0.888485 0.160064
vt 0.934940 0.173233
vt 0.888484 0.173286
vt 0.934939 0.186953
vt 0.888484 0.187006
vt 0.934940 0.200644
vt 0.888484 0.200697
vt 0.934940 0.213780
vt 0.888485 0.213833
vt 0.934941 0.225856
vt 0.888486 0.225908
vt 0.934942 0.236407
vt 0.888487 0.236460
vt 0.932846 0.135911
vt 0.980852 0.145093
vt 0.932853 0.145093
vt 0.980857 0.155569
vt 0.932857 0.155569
vt 0.980860 0.166937
vt 0.932860 0.166937
vt 0.980861 0.178759
vt 0.932861 0.178759
vt 0.932860 0.190580
vt 0.980860 0.190580
vt 0.932857 0.201948
vt 0.980857 0.201948
vt 0.932853 0.212424
vt 0.980852 0.212424
vt 0.932846 0.221606
vt 0.769037 0.233733
vt 0.815494 0.223231
vt 0.815493 0.233786
vt 0.769038 0.223178
vt 0.815495 0.211153
vt 0.769039 0.211100
vt 0.815495 0.198015
vt 0.769040 0.197963
vt 0.815495 0.184324
vt 0.769040 0.184271
vt 0.815495 0.170604
vt 0.769040 0.170551
vt 0.815495 0.157383
vt 0.769039 0.157331
vt 0.815494 0.145170
vt 0.769038 0.145117
vt 0.815493 0.134433
vt 0.986699 0.718489
vt 0.938704 0.727672
vt 0.938700 0.718489
vt 0.986704 0.727672
vt 0.938707 0.738148
vt 0.186784 0.946845
vt 0.116181 0.904315
vt 0.153919 0.818781
vt 0.986707 0.738148
vt 0.938709 0.749515
vt 0.986709 0.749515
vt 0.795938 0.971883
vt 0.725310 0.924417
vt 0.763061 0.841560
vt 0.948426 0.879136
vt 0.996425 0.890957
vt 0.948426 0.890957
vt 0.996423 0.902325
vt 0.948424 0.902325
vt 0.996420 0.912801
vt 0.948421 0.912801
vt 0.996416 0.921984
vt 0.948416 0.921984
vt 0.894329 0.623112
vt 0.940783 0.633800
vt 0.894328 0.633853
vt 0.940782 0.646016
vt 0.894327 0.646069
vt 0.940782 0.659238
vt 0.894326 0.659291
vt 0.940782 0.672958
vt 0.894326 0.673011
vt 0.940782 0.686649
vt 0.894326 0.686702
vt 0.940782 0.699785
vt 0.894327 0.699838
vt 0.940783 0.711861
vt 0.894328 0.711913
vt 0.940784 0.722412
vt 0.894329 0.722465
vt 0.938688 0.605919
vt 0.986694 0.615101
vt 0.938695 0.615101
vt 0.986699 0.625577
vt 0.938699 0.625577
vt 0.986702 0.636945
vt 0.938702 0.636945
vt 0.986703 0.648766
vt 0.938703 0.648766
vt 0.938702 0.660588
vt 0.986702 0.660588
vt 0.938699 0.671956
vt 0.986699 0.671955
vt 0.938695 0.682432
vt 0.986694 0.682432
vt 0.938688 0.691614
vt 0.814172 0.233733
vt 0.860629 0.223231
vt 0.860627 0.233786
vt 0.814173 0.223178
vt 0.860629 0.211153
vt 0.814174 0.211100
vt 0.860630 0.198015
vt 0.814175 0.197963
vt 0.860630 0.184324
vt 0.814175 0.184271
vt 0.860630 0.170604
vt 0.814175 0.170551
vt 0.860629 0.157383
vt 0.814174 0.157331
vt 0.860629 0.145170
vt 0.814173 0.145117
vt 0.860627 0.134433
vt 0.996416 0.836288
vt 0.948421 0.845470
vt 0.948416 0.836288
vt 0.996420 0.845470
vt 0.948424 0.855947
vt 0.083469 0.943295
vt 0.006860 0.912886
vt 0.030099 0.822331
vt 0.996423 0.855947
vt 0.948426 0.867314
vt 0.996425 0.867314
vt 0.898617 0.973694
vt 0.836711 0.915308
vt 0.887516 0.839748
vt 0.000000 0.000000
vt 0.374685 0.650274
vt 0.530095 0.726735
vt -0.001579 0.650185
vt 0.530321 0.321422
vt 0.768681 0.001121
vt 0.889551 0.000599
vt 0.996426 0.959712
vt 0.940784 0.526486
vt 0.986688 0.525342
vt 0.986688 0.611038
vt 0.458934 0.672024
vt 0.278371 0.815816
vt 0.289468 0.815427
vt 0.300352 0.817626
vt 0.310604 0.822331
vt 0.319831 0.829360
vt 0.327678 0.838444
vt 0.333843 0.849232
vt 0.338090 0.861311
vt 0.340255 0.874216
vt 0.340255 0.887451
vt 0.338090 0.900509
vt 0.333843 0.912886
vt 0.327678 0.924108
vt 0.319831 0.933742
vt 0.310604 0.941420
vt 0.289468 0.949809
vt 0.278371 0.950199
vt 0.267487 0.947999
vt 0.257234 0.943295
vt 0.248007 0.936265
vt 0.240161 0.927182
vt 0.233995 0.916394
vt 0.227584 0.891410
vt 0.227584 0.878174
vt 0.229749 0.865117
vt 0.233995 0.852740
vt 0.240161 0.841518
vt 0.248007 0.831884
vt 0.257234 0.824206
vt 0.424527 0.843297
vt 0.435628 0.843686
vt 0.446516 0.846648
vt 0.456772 0.852070
vt 0.466002 0.859743
vt 0.473852 0.869374
vt 0.480019 0.880590
vt 0.484267 0.892963
vt 0.486433 0.906015
vt 0.486433 0.919246
vt 0.484267 0.932147
vt 0.480019 0.944222
vt 0.473852 0.955007
vt 0.466002 0.964088
vt 0.456772 0.971116
vt 0.435628 0.978021
vt 0.424527 0.977632
vt 0.413639 0.974670
vt 0.403383 0.969248
vt 0.394153 0.961574
vt 0.386303 0.951944
vt 0.380136 0.940727
vt 0.373722 0.915303
vt 0.373722 0.902072
vt 0.375888 0.889171
vt 0.380136 0.877096
vt 0.386303 0.866310
vt 0.394153 0.857230
vt 0.403383 0.850202
vt 0.264728 0.002468
vt 0.723067 0.264327
vt 0.459223 0.841639
vt 0.530587 0.002464
vt 0.895360 0.263128
vt 0.809242 0.264060
vt 0.697608 0.924909
vt 0.697050 0.784352
vt 0.941416 0.718613
vt 0.941416 0.808263
vt 0.458850 0.575271
vt 0.823586 0.000829
vt 0.835258 0.000536
vt 0.846705 0.002832
vt 0.857489 0.007628
vt 0.867193 0.014740
vt 0.875446 0.023896
vt 0.881931 0.034742
vt 0.886397 0.046862
vt 0.888674 0.059791
vt 0.888674 0.073031
vt 0.886397 0.086074
vt 0.881931 0.098419
vt 0.875446 0.109590
vt 0.867193 0.119160
vt 0.857489 0.126759
vt 0.835258 0.134967
vt 0.823586 0.135260
vt 0.812139 0.132964
vt 0.801356 0.128168
vt 0.791651 0.121056
vt 0.783398 0.111900
vt 0.776914 0.101054
vt 0.770170 0.076005
vt 0.770170 0.062765
vt 0.772447 0.049722
vt 0.776914 0.037377
vt 0.783398 0.026206
vt 0.791651 0.016636
vt 0.801356 0.009037
vt 0.585608 0.786458
vt 0.597284 0.786749
vt 0.608736 0.789617
vt 0.619522 0.794951
vt 0.629230 0.802547
vt 0.637487 0.812112
vt 0.643973 0.823279
vt 0.648441 0.835618
vt 0.650719 0.848657
vt 0.650719 0.861892
vt 0.648441 0.874817
vt 0.643973 0.886933
vt 0.637487 0.897776
vt 0.629231 0.906929
vt 0.619523 0.914041
vt 0.597284 0.921133
vt 0.585608 0.920841
vt 0.574157 0.917974
vt 0.563370 0.912639
vt 0.553662 0.905044
vt 0.545406 0.895479
vt 0.538919 0.884312
vt 0.532173 0.858934
vt 0.532173 0.845698
vt 0.534451 0.832774
vt 0.538919 0.820657
vt 0.545406 0.809814
vt 0.553662 0.800661
vt 0.563370 0.793550
vt 0.986710 0.761337
vt 0.934942 0.137055
vt 0.980846 0.135911
vt 0.980846 0.221606
vt 0.769037 0.134380
vt 0.164803 0.815816
vt 0.175900 0.815427
vt 0.186784 0.817626
vt 0.197036 0.822331
vt 0.206263 0.829360
vt 0.214110 0.838444
vt 0.220275 0.849232
vt 0.224522 0.861311
vt 0.226687 0.874216
vt 0.226687 0.887451
vt 0.224522 0.900509
vt 0.220275 0.912886
vt 0.214110 0.924107
vt 0.206263 0.933742
vt 0.197037 0.941420
vt 0.175900 0.949809
vt 0.164803 0.950199
vt 0.153919 0.947999
vt 0.143667 0.943295
vt 0.134440 0.936265
vt 0.126593 0.927182
vt 0.120428 0.916394
vt 0.114016 0.891410
vt 0.114016 0.878174
vt 0.116181 0.865117
vt 0.120428 0.852740
vt 0.126593 0.841518
vt 0.134440 0.831884
vt 0.143667 0.824206
vt 0.773949 0.839359
vt 0.785050 0.839748
vt 0.795938 0.842710
vt 0.806194 0.848132
vt 0.815424 0.855806
vt 0.823274 0.865436
vt 0.829441 0.876653
vt 0.833689 0.889025
vt 0.835855 0.902077
vt 0.835855 0.915308
vt 0.833689 0.928209
vt 0.829441 0.940284
vt 0.823274 0.951070
vt 0.815424 0.960151
vt 0.806194 0.967178
vt 0.785050 0.974083
vt 0.773949 0.973695
vt 0.763061 0.970732
vt 0.752805 0.965310
vt 0.743575 0.957637
vt 0.735725 0.948006
vt 0.729558 0.936789
vt 0.723144 0.911365
vt 0.723144 0.898134
vt 0.725310 0.885233
vt 0.729558 0.873158
vt 0.735726 0.862373
vt 0.743575 0.853292
vt 0.752805 0.846264
vt 0.996426 0.879136
vt 0.940784 0.623060
vt 0.986688 0.605919
vt 0.986688 0.691614
vt 0.814172 0.134380
vt 0.040352 0.817626
vt 0.051235 0.815427
vt 0.062333 0.815816
vt 0.073216 0.818781
vt 0.083469 0.824206
vt 0.092696 0.831884
vt 0.100543 0.841518
vt 0.106708 0.852740
vt 0.110954 0.865117
vt 0.113119 0.878174
vt 0.113119 0.891410
vt 0.110954 0.904315
vt 0.106708 0.916394
vt 0.100542 0.927182
vt 0.092696 0.936265
vt 0.073216 0.947999
vt 0.062332 0.950199
vt 0.051235 0.949809
vt 0.040351 0.946845
vt 0.030099 0.941420
vt 0.020872 0.933742
vt 0.013025 0.924107
vt 0.002613 0.900509
vt 0.000448 0.887451
vt 0.000448 0.874216
vt 0.002613 0.861311
vt 0.006860 0.849232
vt 0.013025 0.838444
vt 0.020872 0.829360
vt 0.898617 0.839359
vt 0.909505 0.841559
vt 0.919761 0.846264
vt 0.928991 0.853292
vt 0.936841 0.862373
vt 0.943008 0.873158
vt 0.947256 0.885233
vt 0.949422 0.898134
vt 0.949422 0.911365
vt 0.947256 0.924417
vt 0.943008 0.936789
vt 0.936841 0.948006
vt 0.928991 0.957637
vt 0.919761 0.965310
vt 0.909505 0.970732
vt 0.887516 0.974083
vt 0.876628 0.971883
vt 0.866372 0.967178
vt 0.857142 0.960150
vt 0.849293 0.951070
vt 0.843125 0.940284
vt 0.838877 0.928209
vt 0.836711 0.902077
vt 0.838877 0.889025
vt 0.843125 0.876653
vt 0.849292 0.865436
vt 0.857142 0.855806
vt 0.866372 0.848132
vt 0.876628 0.842710
s 0
usemtl マテリアル
f 1/1/1 4/2/1 3/3/1
f 3/4/2 8/5/2 7/6/2
f 8/7/3 5/8/3 7/9/3
f 6/10/4 1/11/4 5/12/4
f 7/13/5 1/14/5 3/15/5
f 8/16/6 2/17/6 6/18/6
f 9/19/7 12/20/7 11/21/7
f 11/21/8 14/22/8 13/23/8
f 13/23/9 16/24/9 15/25/9
f 15/25/10 18/26/10 17/27/10
f 17/28/11 20/29/11 19/30/11
f 19/30/12 22/31/12 21/32/12
f 21/32/13 24/33/13 23/34/13
f 23/34/14 26/35/14 25/36/14
f 25/36/15 28/37/15 27/38/15
f 27/38/16 30/39/16 29/40/16
f 29/40/17 32/41/17 31/42/17
f 31/42/18 34/43/18 33/44/18
f 33/45/19 36/46/19 35/47/19
f 35/47/20 38/48/20 37/49/20
f 37/49/21 40/50/21 39/51/21
f 39/51/22 42/52/22 41/53/22
f 42/52/23 43/54/23 41/53/23
f 44/55/24 45/56/24 43/54/24
f 46/57/25 47/58/25 45/56/25
f 48/59/26 49/60/26 47/58/26
f 50/61/27 51/62/27 49/63/27
f 52/64/28 53/65/28 51/62/28
f 54/66/29 55/67/29 53/65/29
f 56/68/30 57/69/30 55/67/30
f 58/70/31 59/71/31 57/69/31
f 60/72/32 61/73/32 59/71/32
f 62/74/33 63/75/33 61/73/33
f 64/76/34 65/77/34 63/75/34
f 66/78/35 67/79/35 65/80/35
f 68/81/36 69/82/36 67/79/36
f 46/83/37 30/84/37 14/85/37
f 70/86/38 71/87/38 69/82/38
f 72/88/39 9/19/39 71/87/39
f 39/89/40 55/90/40 71/91/40
f 81/110/46 84/111/46 83/112/46
f 83/112/47 86/113/47 85/114/47
f 85/114/48 88/115/48 87/116/48
f 87/116/49 90/117/49 89/118/49
f 89/119/50 92/120/50 91/121/50
f 91/121/51 94/122/51 93/123/51
f 93/123/52 96/124/52 95/125/52
f 95/125/53 98/126/53 97/127/53
f 97/127/54 100/128/54 99/129/54
f 99/129/55 102/130/55 101/131/55
f 101/131/56 104/132/56 103/133/56
f 103/133/57 106/134/57 105/135/57
f 105/136/58 108/137/58 107/138/58
f 107/138/59 110/139/59 109/140/59
f 109/140/60 112/141/60 111/142/60
f 111/142/61 114/143/61 113/144/61
f 114/143/62 115/145/62 113/144/62
f 116/146/63 117/147/63 115/145/63
f 118/148/64 119/149/64 117/147/64
f 120/150/65 121/151/65 119/149/65
f 122/152/66 123/153/66 121/154/66
f 124/155/67 125/156/67 123/153/67
f 126/157/68 127/158/68 125/156/68
f 128/159/69 129/160/69 127/158/69
f 130/161/70 131/162/70 129/160/70
f 132/163/71 133/164/71 131/162/71
f 134/165/72 135/166/72 133/164/72
f 136/167/73 137/168/73 135/166/73
f 138/169/74 139/170/74 137/171/74
f 140/172/75 141/173/75 139/170/75
f 118/174/37 102/175/37 86/176/37
f 142/177/76 143/178/76 141/173/76
f 144/179/77 81/110/77 143/178/77
f 111/180/40 127/181/40 143/182/40
f 145/183/7 148/184/7 147/185/7
f 147/185/8 150/186/8 149/187/8
f 149/187/9 152/188/9 151/189/9
f 151/189/10 154/190/10 153/191/10
f 153/192/11 156/193/11 155/194/11
f 155/194/12 158/195/12 157/196/12
f 157/196/13 160/197/13 159/198/13
f 159/198/14 162/199/14 161/200/14
f 161/200/15 164/201/15 163/202/15
f 163/202/16 166/203/16 165/204/16
f 165/204/17 168/205/17 167/206/17
f 167/206/18 170/207/18 169/208/18
f 169/209/19 172/210/19 171/211/19
f 171/211/20 174/212/20 173/213/20
f 173/213/21 176/214/21 175/215/21
f 175/215/22 178/216/22 177/217/22
f 178/216/23 179/218/23 177/217/23
f 180/219/24 181/220/24 179/218/24
f 182/221/25 183/222/25 181/220/25
f 184/223/26 185/224/26 183/222/26
f 186/225/27 187/226/27 185/227/27
f 188/228/28 189/229/28 187/226/28
f 190/230/29 191/231/29 189/229/29
f 192/232/30 193/233/30 191/231/30
f 194/234/31 195/235/31 193/233/31
f 196/236/32 197/237/32 195/235/32
f 198/238/33 199/239/33 197/237/33
f 200/240/34 201/241/34 199/239/34
f 202/242/35 203/243/35 201/244/35
f 204/245/36 205/246/36 203/243/36
f 182/247/37 166/248/37 150/249/37
f 206/250/38 207/251/38 205/246/38
f 208/252/39 145/183/39 207/251/39
f 175/253/40 191/254/40 207/255/40
f 209/256/7 212/257/7 211/258/7
f 211/258/8 214/259/8 213/260/8
f 213/260/9 216/261/9 215/262/9
f 215/262/10 218/263/10 217/264/10
f 217/265/11 220/266/11 219/267/11
f 219/267/12 222/268/12 221/269/12
f 221/269/13 224/270/13 223/271/13
f 223/271/14 226/272/14 225/273/14
f 225/273/15 228/274/15 227/275/15
f 227/275/16 230/276/16 229/277/16
f 229/277/17 232/278/17 231/279/17
f 231/279/18 234/280/18 233/281/18
f 233/282/19 236/283/19 235/284/19
f 235/284/20 238/285/20 237/286/20
f 237/286/21 240/287/21 239/288/21
f 239/288/22 242/289/22 241/290/22
f 242/289/23 243/291/23 241/290/23
f 244/292/24 245/293/24 243/291/24
f 246/294/25 247/295/25 245/293/25
f 248/296/26 249/297/26 247/295/26
f 250/298/27 251/299/27 249/300/27
f 252/301/28 253/302/28 251/299/28
f 254/303/29 255/304/29 253/302/29
f 256/305/30 257/306/30 255/304/30
f 258/307/31 259/308/31 257/306/31
f 260/309/32 261/310/32 259/308/32
f 262/311/33 263/312/33 261/310/33
f 264/313/34 265/314/34 263/312/34
f 266/315/35 267/316/35 265/317/35
f 268/318/36 269/319/36 267/316/36
f 246/320/37 230/321/37 214/322/37
f 270/323/38 271/324/38 269/319/38
f 272/325/39 209/256/39 271/324/39
f 239/326/40 255/327/40 271/328/40
f 1/1/88 2/330/88 4/2/88
f 3/4/2 4/331/2 8/5/2
f 8/7/89 6/332/89 5/8/89
f 6/10/4 2/333/4 1/11/4
f 7/13/5 5/334/5 1/14/5
f 8/16/6 4/335/6 2/17/6
f 9/19/7 10/336/7 12/20/7
f 11/21/8 12/20/8 14/22/8
f 13/23/9 14/22/9 16/24/9
f 15/25/10 16/24/10 18/26/10
f 17/28/11 18/337/11 20/29/11
f 19/30/12 20/29/12 22/31/12
f 21/32/13 22/31/13 24/33/13
f 23/34/14 24/33/14 26/35/14
f 25/36/15 26/35/15 28/37/15
f 27/38/16 28/37/16 30/39/16
f 29/40/17 30/39/17 32/41/17
f 31/42/18 32/41/18 34/43/18
f 33/45/19 34/338/19 36/46/19
f 35/47/20 36/46/20 38/48/20
f 37/49/21 38/48/21 40/50/21
f 39/51/22 40/50/22 42/52/22
f 42/52/23 44/55/23 43/54/23
f 44/55/24 46/57/24 45/56/24
f 46/57/25 48/59/25 47/58/25
f 48/59/26 50/339/26 49/60/26
f 50/61/27 52/64/27 51/62/27
f 52/64/28 54/66/28 53/65/28
f 54/66/29 56/68/29 55/67/29
f 56/68/30 58/70/30 57/69/30
f 58/70/31 60/72/31 59/71/31
f 60/72/32 62/74/32 61/73/32
f 62/74/33 64/76/33 63/75/33
f 64/76/34 66/340/34 65/77/34
f 66/78/35 68/81/35 67/79/35
f 68/81/36 70/86/36 69/82/36
f 14/85/37 12/341/37 10/342/37
f 10/342/37 72/343/37 70/344/37
f 70/344/37 68/345/37 66/346/37
f 66/346/37 64/347/37 62/348/37
f 62/348/37 60/349/37 58/350/37
f 58/350/37 56/351/37 54/352/37
f 54/352/37 52/353/37 50/354/37
f 50/354/37 48/355/37 46/83/37
f 46/83/37 44/356/37 42/357/37
f 42/357/37 40/358/37 38/359/37
f 38/359/37 36/360/37 34/361/37
f 34/361/37 32/362/37 30/84/37
f 30/84/37 28/363/37 26/364/37
f 26/364/37 24/365/37 22/366/37
f 22/366/37 20/367/37 18/368/37
f 18/368/37 16/369/37 14/85/37
f 14/85/37 10/342/37 70/344/37
f 70/344/37 66/346/37 62/348/37
f 62/348/37 58/350/37 54/352/37
f 54/352/37 50/354/37 46/83/37
f 46/83/37 42/357/37 38/359/37
f 38/359/37 34/361/37 30/84/37
f 30/84/37 26/364/37 22/366/37
f 22/366/37 18/368/37 14/85/37
f 14/85/37 70/344/37 62/348/37
f 62/348/37 54/352/37 46/83/37
f 46/83/37 38/359/37 30/84/37
f 30/84/37 22/366/37 14/85/37
f 14/85/37 62/348/37 46/83/37
f 70/86/38 72/88/38 71/87/38
f 72/88/39 10/336/39 9/19/39
f 71/91/40 9/370/40 11/371/40
f 11/371/40 13/372/40 15/373/40
f 15/373/40 17/374/40 19/375/40
f 19/375/40 21/376/40 23/377/40
f 23/377/40 25/378/40 27/379/40
f 27/379/40 29/380/40 31/381/40
f 31/381/40 33/382/40 35/383/40
f 35/383/40 37/384/40 39/89/40
f 39/89/40 41/385/40 43/386/40
f 43/386/40 45/387/40 47/388/40
f 47/388/40 49/389/40 51/390/40
f 51/390/40 53/391/40 55/90/40
f 55/90/40 57/392/40 59/393/40
f 59/393/40 61/394/40 63/395/40
f 63/395/40 65/396/40 67/397/40
f 67/397/40 69/398/40 71/91/40
f 71/91/40 11/371/40 15/373/40
f 15/373/40 19/375/40 23/377/40
f 23/377/40 27/379/40 31/381/40
f 31/381/40 35/383/40 39/89/40
f 39/89/40 43/386/40 47/388/40
f 47/388/40 51/390/40 55/90/40
f 55/90/40 59/393/40 63/395/40
f 63/395/40 67/397/40 71/91/40
f 71/91/40 15/373/40 23/377/40
f 23/377/40 31/381/40 39/89/40
f 39/89/40 47/388/40 55/90/40
f 55/90/40 63/395/40 71/91/40
f 71/91/40 23/377/40 39/89/40
f 81/110/46 82/405/46 84/111/46
f 83/112/47 84/111/47 86/113/47
f 85/114/48 86/113/48 88/115/48
f 87/116/49 88/115/49 90/117/49
f 89/119/50 90/406/50 92/120/50
f 91/121/51 92/120/51 94/122/51
f 93/123/52 94/122/52 96/124/52
f 95/125/53 96/124/53 98/126/53
f 97/127/54 98/126/54 100/128/54
f 99/129/55 100/128/55 102/130/55
f 101/131/56 102/130/56 104/132/56
f 103/133/57 104/132/57 106/134/57
f 105/136/58 106/407/58 108/137/58
f 107/138/59 108/137/59 110/139/59
f 109/140/60 110/139/60 112/141/60
f 111/142/61 112/141/61 114/143/61
f 114/143/62 116/146/62 115/145/62
f 116/146/63 118/148/63 117/147/63
f 118/148/64 120/150/64 119/149/64
f 120/150/65 122/408/65 121/151/65
f 122/152/66 124/155/66 123/153/66
f 124/155/67 126/157/67 125/156/67
f 126/157/68 128/159/68 127/158/68
f 128/159/69 130/161/69 129/160/69
f 130/161/70 132/163/70 131/162/70
f 132/163/71 134/165/71 133/164/71
f 134/165/72 136/167/72 135/166/72
f 136/167/73 138/409/73 137/168/73
f 138/169/74 140/172/74 139/170/74
f 140/172/75 142/177/75 141/173/75
f 86/176/37 84/410/37 82/411/37
f 82/411/37 144/412/37 142/413/37
f 142/413/37 140/414/37 138/415/37
f 138/415/37 136/416/37 134/417/37
f 134/417/37 132/418/37 130/419/37
f 130/419/37 128/420/37 126/421/37
f 126/421/37 124/422/37 122/423/37
f 122/423/37 120/424/37 118/174/37
f 118/174/37 116/425/37 114/426/37
f 114/426/37 112/427/37 110/428/37
f 110/428/37 108/429/37 106/430/37
f 106/430/37 104/431/37 102/175/37
f 102/175/37 100/432/37 98/433/37
f 98/433/37 96/434/37 94/435/37
f 94/435/37 92/436/37 90/437/37
f 90/437/37 88/438/37 86/176/37
f 86/176/37 82/411/37 142/413/37
f 142/413/37 138/415/37 134/417/37
f 134/417/37 130/419/37 126/421/37
f 126/421/37 122/423/37 118/174/37
f 118/174/37 114/426/37 110/428/37
f 110/428/37 106/430/37 102/175/37
f 102/175/37 98/433/37 94/435/37
f 94/435/37 90/437/37 86/176/37
f 86/176/37 142/413/37 134/417/37
f 134/417/37 126/421/37 118/174/37
f 118/174/37 110/428/37 102/175/37
f 102/175/37 94/435/37 86/176/37
f 86/176/37 134/417/37 118/174/37
f 142/177/76 144/179/76 143/178/76
f 144/179/77 82/405/77 81/110/77
f 143/182/40 81/439/40 83/440/40
f 83/440/40 85/441/40 87/442/40
f 87/442/40 89/443/40 91/444/40
f 91/444/40 93/445/40 95/446/40
f 95/446/40 97/447/40 99/448/40
f 99/448/40 101/449/40 103/450/40
f 103/450/40 105/451/40 107/452/40
f 107/452/40 109/453/40 111/180/40
f 111/180/40 113/454/40 115/455/40
f 115/455/40 117/456/40 119/457/40
f 119/457/40 121/458/40 123/459/40
f 123/459/40 125/460/40 127/181/40
f 127/181/40 129/461/40 131/462/40
f 131/462/40 133/463/40 135/464/40
f 135/464/40 137/465/40 139/466/40
f 139/466/40 141/467/40 143/182/40
f 143/182/40 83/440/40 87/442/40
f 87/442/40 91/444/40 95/446/40
f 95/446/40 99/448/40 103/450/40
f 103/450/40 107/452/40 111/180/40
f 111/180/40 115/455/40 119/457/40
f 119/457/40 123/459/40 127/181/40
f 127/181/40 131/462/40 135/464/40
f 135/464/40 139/466/40 143/182/40
f 143/182/40 87/442/40 95/446/40
f 95/446/40 103/450/40 111/180/40
f 111/180/40 119/457/40 127/181/40
f 127/181/40 135/464/40 143/182/40
f 143/182/40 95/446/40 111/180/40
f 145/183/7 146/468/7 148/184/7
f 147/185/8 148/184/8 150/186/8
f 149/187/9 150/186/9 152/188/9
f 151/189/10 152/188/10 154/190/10
f 153/192/11 154/469/11 156/193/11
f 155/194/12 156/193/12 158/195/12
f 157/196/13 158/195/13 160/197/13
f 159/198/14 160/197/14 162/199/14
f 161/200/15 162/199/15 164/201/15
f 163/202/16 164/201/16 166/203/16
f 165/204/17 166/203/17 168/205/17
f 167/206/18 168/205/18 170/207/18
f 169/209/19 170/470/19 172/210/19
f 171/211/20 172/210/20 174/212/20
f 173/213/21 174/212/21 176/214/21
f 175/215/22 176/214/22 178/216/22
f 178/216/23 180/219/23 179/218/23
f 180/219/24 182/221/24 181/220/24
f 182/221/25 184/223/25 183/222/25
f 184/223/26 186/471/26 185/224/26
f 186/225/27 188/228/27 187/226/27
f 188/228/28 190/230/28 189/229/28
f 190/230/29 192/232/29 191/231/29
f 192/232/30 194/234/30 193/233/30
f 194/234/31 196/236/31 195/235/31
f 196/236/32 198/238/32 197/237/32
f 198/238/33 200/240/33 199/239/33
f 200/240/34 202/472/34 201/241/34
f 202/242/35 204/245/35 203/243/35
f 204/245/36 206/250/36 205/246/36
f 150/249/37 148/473/37 146/474/37
f 146/474/37 208/475/37 206/476/37
f 206/476/37 204/477/37 202/478/37
f 202/478/37 200/479/37 198/480/37
f 198/480/37 196/481/37 194/482/37
f 194/482/37 192/483/37 190/484/37
f 190/484/37 188/485/37 186/486/37
f 186/486/37 184/487/37 182/247/37
f 182/247/37 180/488/37 178/489/37
f 178/489/37 176/490/37 174/491/37
f 174/491/37 172/492/37 170/493/37
f 170/493/37 168/494/37 166/248/37
f 166/248/37 164/495/37 162/496/37
f 162/496/37 160/497/37 158/498/37
f 158/498/37 156/499/37 154/500/37
f 154/500/37 152/501/37 150/249/37
f 150/249/37 146/474/37 206/476/37
f 206/476/37 202/478/37 198/480/37
f 198/480/37 194/482/37 190/484/37
f 190/484/37 186/486/37 182/247/37
f 182/247/37 178/489/37 174/491/37
f 174/491/37 170/493/37 166/248/37
f 166/248/37 162/496/37 158/498/37
f 158/498/37 154/500/37 150/249/37
f 150/249/37 206/476/37 198/480/37
f 198/480/37 190/484/37 182/247/37
f 182/247/37 174/491/37 166/248/37
f 166/248/37 158/498/37 150/249/37
f 150/249/37 198/480/37 182/247/37
f 206/250/38 208/252/38 207/251/38
f 208/252/39 146/468/39 145/183/39
f 207/255/40 145/502/40 147/503/40
f 147/503/40 149/504/40 151/505/40
f 151/505/40 153/506/40 155/507/40
f 155/507/40 157/508/40 159/509/40
f 159/509/40 161/510/40 163/511/40
f 163/511/40 165/512/40 167/513/40
f 167/513/40 169/514/40 171/515/40
f 171/515/40 173/516/40 175/253/40
f 175/253/40 177/517/40 179/518/40
f 179/518/40 181/519/40 183/520/40
f 183/520/40 185/521/40 187/522/40
f 187/522/40 189/523/40 191/254/40
f 191/254/40 193/524/40 195/525/40
f 195/525/40 197/526/40 199/527/40
f 199/527/40 201/528/40 203/529/40
f 203/529/40 205/530/40 207/255/40
f 207/255/40 147/503/40 151/505/40
f 151/505/40 155/507/40 159/509/40
f 159/509/40 163/511/40 167/513/40
f 167/513/40 171/515/40 175/253/40
f 175/253/40 179/518/40 183/520/40
f 183/520/40 187/522/40 191/254/40
f 191/254/40 195/525/40 199/527/40
f 199/527/40 203/529/40 207/255/40
f 207/255/40 151/505/40 159/509/40
f 159/509/40 167/513/40 175/253/40
f 175/253/40 183/520/40 191/254/40
f 191/254/40 199/527/40 207/255/40
f 207/255/40 159/509/40 175/253/40
f 209/256/7 210/531/7 212/257/7
f 211/258/8 212/257/8 214/259/8
f 213/260/9 214/259/9 216/261/9
f 215/262/10 216/261/10 218/263/10
f 217/265/11 218/532/11 220/266/11
f 219/267/12 220/266/12 222/268/12
f 221/269/13 222/268/13 224/270/13
f 223/271/14 224/270/14 226/272/14
f 225/273/15 226/272/15 228/274/15
f 227/275/16 228/274/16 230/276/16
f 229/277/17 230/276/17 232/278/17
f 231/279/18 232/278/18 234/280/18
f 233/282/19 234/533/19 236/283/19
f 235/284/20 236/283/20 238/285/20
f 237/286/21 238/285/21 240/287/21
f 239/288/22 240/287/22 242/289/22
f 242/289/23 244/292/23 243/291/23
f 244/292/24 246/294/24 245/293/24
f 246/294/25 248/296/25 247/295/25
f 248/296/26 250/534/26 249/297/26
f 250/298/27 252/301/27 251/299/27
f 252/301/28 254/303/28 253/302/28
f 254/303/29 256/305/29 255/304/29
f 256/305/30 258/307/30 257/306/30
f 258/307/31 260/309/31 259/308/31
f 260/309/32 262/311/32 261/310/32
f 262/311/33 264/313/33 263/312/33
f 264/313/34 266/535/34 265/314/34
f 266/315/35 268/318/35 267/316/35
f 268/318/36 270/323/36 269/319/36
f 214/322/37 212/536/37 210/537/37
f 210/537/37 272/538/37 270/539/37
f 270/539/37 268/540/37 266/541/37
f 266/541/37 264/542/37 262/543/37
f 262/543/37 260/544/37 258/545/37
f 258/545/37 256/546/37 254/547/37
f 254/547/37 252/548/37 250/549/37
f 250/549/37 248/550/37 246/320/37
f 246/320/37 244/551/37 242/552/37
f 242/552/37 240/553/37 238/554/37
f 238/554/37 236/555/37 234/556/37
f 234/556/37 232/557/37 230/321/37
f 230/321/37 228/558/37 226/559/37
f 226/559/37 224/560/37 222/561/37
f 222/561/37 220/562/37 218/563/37
f 218/563/37 216/564/37 214/322/37
f 214/322/37 210/537/37 270/539/37
f 270/539/37 266/541/37 262/543/37
f 262/543/37 258/545/37 254/547/37
f 254/547/37 250/549/37 246/320/37
f 246/320/37 242/552/37 238/554/37
f 238/554/37 234/556/37 230/321/37
f 230/321/37 226/559/37 222/561/37
f 222/561/37 218/563/37 214/322/37
f 214/322/37 270/539/37 262/543/37
f 262/543/37 254/547/37 246/320/37
f 246/320/37 238/554/37 230/321/37
f 230/321/37 222/561/37 214/322/37
f 214/322/37 262/543/37 246/320/37
f 270/323/38 272/325/38 271/324/38
f 272/325/39 210/531/39 209/256/39
f 271/328/40 209/565/40 211/566/40
f 211/566/40 213/567/40 215/568/40
f 215/568/40 217/569/40 219/570/40
f 219/570/40 221/571/40 223/572/40
f 223/572/40 225/573/40 227/574/40
f 227/574/40 229/575/40 231/576/40
f 231/576/40 233/577/40 235/578/40
f 235/578/40 237/579/40 239/326/40
f 239/326/40 241/580/40 243/581/40
f 243/581/40 245/582/40 247/583/40
f 247/583/40 249/584/40 251/585/40
f 251/585/40 253/586/40 255/327/40
f 255/327/40 257/587/40 259/588/40
f 259/588/40 261/589/40 263/590/40
f 263/590/40 265/591/40 267/592/40
f 267/592/40 269/593/40 271/328/40
f 271/328/40 211/566/40 215/568/40
f 215/568/40 219/570/40 223/572/40
f 223/572/40 227/574/40 231/576/40
f 231/576/40 235/578/40 239/326/40
f 239/326/40 243/581/40 247/583/40
f 247/583/40 251/585/40 255/327/40
f 255/327/40 259/588/40 263/590/40
f 263/590/40 267/592/40 271/328/40
f 271/328/40 215/568/40 223/572/40
f 223/572/40 231/576/40 239/326/40
f 239/326/40 247/583/40 255/327/40
f 255/327/40 263/590/40 271/328/40
f 271/328/40 223/572/40 239/326/40
usemtl マテリアル.002
f 77/92/5 75/93/5 73/94/5
f 75/95/41 80/96/41 76/97/41
f 79/98/42 78/99/42 80/100/42
f 74/101/43 80/102/43 78/103/43
f 73/104/44 76/105/44 74/106/44
f 77/107/45 74/108/45 78/109/45
f 77/92/5 79/399/5 75/93/5
f 75/95/41 79/400/41 80/96/41
f 79/98/42 77/401/42 78/99/42
f 74/101/43 76/402/43 80/102/43
f 73/104/44 75/403/44 76/105/44
f 77/107/45 73/404/45 74/108/45
s 1
usemtl マテリアル.003
f 273/329/78 276/329/79 275/329/1
f 275/329/2 280/329/2 279/329/2
f 280/329/80 277/329/81 279/329/3
f 278/329/4 273/329/4 277/329/4
f 279/329/5 273/329/5 275/329/5
f 280/329/6 274/329/6 278/329/6
f 281/329/7 284/329/7 283/329/7
f 283/329/8 286/329/8 285/329/8
f 285/329/82 288/329/83 287/329/82
f 287/329/10 290/329/10 289/329/10
f 289/329/11 292/329/11 291/329/11
f 291/329/12 294/329/12 293/329/12
f 293/329/13 296/329/13 295/329/13
f 295/329/14 298/329/14 297/329/14
f 297/329/15 300/329/15 299/329/15
f 299/329/16 302/329/16 301/329/16
f 301/329/17 304/329/17 303/329/17
f 303/329/18 306/329/18 305/329/18
f 305/329/19 308/329/19 307/329/19
f 307/329/84 310/329/20 309/329/84
f 309/329/21 312/329/21 311/329/21
f 311/329/22 314/329/22 313/329/22
f 314/329/23 315/329/23 313/329/23
f 316/329/24 317/329/24 315/329/24
f 318/329/25 319/329/25 317/329/25
f 320/329/26 321/329/26 319/329/26
f 322/329/27 323/329/27 321/329/27
f 324/329/28 325/329/28 323/329/28
f 326/329/29 327/329/29 325/329/29
f 328/329/30 329/329/30 327/329/30
f 330/329/31 331/329/31 329/329/31
f 332/329/32 333/329/32 331/329/32
f 334/329/33 335/329/33 333/329/33
f 336/329/34 337/329/34 335/329/34
f 338/329/35 339/329/35 337/329/35
f 340/329/36 341/329/36 339/329/36
f 318/329/37 302/329/37 286/329/37
f 342/329/38 343/329/38 341/329/38
f 344/329/39 281/329/39 343/329/39
f 311/329/40 327/329/40 343/329/40
f 353/329/46 356/329/46 355/329/46
f 355/329/47 358/329/47 357/329/47
f 357/329/48 360/329/48 359/329/48
f 359/329/49 362/329/49 361/329/49
f 361/329/50 364/329/50 363/329/50
f 363/329/51 366/329/51 365/329/51
f 365/329/52 368/329/52 367/329/52
f 367/329/53 370/329/53 369/329/53
f 369/329/54 372/329/54 371/329/54
f 371/329/55 374/329/55 373/329/55
f 373/329/56 376/329/56 375/329/56
f 375/329/57 378/329/57 377/329/57
f 377/329/58 380/329/58 379/329/58
f 379/329/59 382/329/59 381/329/59
f 381/329/60 384/329/60 383/329/60
f 383/329/61 386/329/61 385/329/61
f 386/329/62 387/329/62 385/329/62
f 388/329/63 389/329/63 387/329/63
f 390/329/64 391/329/64 389/329/64
f 392/329/65 393/329/65 391/329/65
f 394/329/66 395/329/66 393/329/66
f 396/329/67 397/329/67 395/329/67
f 398/329/68 399/329/68 397/329/68
f 400/329/69 401/329/69 399/329/69
f 402/329/70 403/329/70 401/329/70
f 404/329/71 405/329/71 403/329/71
f 406/329/72 407/329/72 405/329/72
f 408/329/73 409/329/73 407/329/73
f 410/329/74 411/329/74 409/329/74
f 412/329/75 413/329/75 411/329/75
f 390/329/37 374/329/37 358/329/37
f 414/329/76 415/329/76 413/329/76
f 416/329/77 353/329/77 415/329/77
f 383/329/40 399/329/40 415/329/40
f 417/329/7 420/329/7 419/329/7
f 419/329/8 422/329/8 421/329/8
f 421/329/82 424/329/82 423/329/82
f 423/329/10 426/329/10 425/329/10
f 425/329/11 428/329/11 427/329/11
f 427/329/12 430/329/12 429/329/12
f 429/329/13 432/329/13 431/329/13
f 431/329/14 434/329/14 433/329/14
f 433/329/15 436/329/15 435/329/15
f 435/329/16 438/329/16 437/329/16
f 437/329/17 440/329/17 439/329/17
f 439/329/18 442/329/18 441/329/18
f 441/329/19 444/329/19 443/329/19
f 443/329/84 446/329/20 445/329/85
f 445/329/21 448/329/21 447/329/21
f 447/329/22 450/329/22 449/329/22
f 450/329/23 451/329/23 449/329/23
f 452/329/24 453/329/24 451/329/24
f 454/329/25 455/329/25 453/329/25
f 456/329/26 457/329/26 455/329/26
f 458/329/27 459/329/27 457/329/27
f 460/329/28 461/329/28 459/329/28
f 462/329/29 463/329/29 461/329/29
f 464/329/30 465/329/30 463/329/30
f 466/329/31 467/329/31 465/329/31
f 468/329/86 469/329/32 467/329/32
f 470/329/33 471/329/33 469/329/33
f 472/329/34 473/329/34 471/329/34
f 474/329/35 475/329/35 473/329/35
f 476/329/36 477/329/87 475/329/87
f 454/329/37 438/329/37 422/329/37
f 478/329/38 479/329/38 477/329/38
f 480/329/39 417/329/39 479/329/39
f 447/329/40 463/329/40 479/329/40
f 481/329/7 484/329/7 483/329/7
f 483/329/8 486/329/8 485/329/8
f 485/329/82 488/329/83 487/329/82
f 487/329/10 490/329/10 489/329/10
f 489/329/11 492/329/11 491/329/11
f 491/329/12 494/329/12 493/329/12
f 493/329/13 496/329/13 495/329/13
f 495/329/14 498/329/14 497/329/14
f 497/329/15 500/329/15 499/329/15
f 499/329/16 502/329/16 501/329/16
f 501/329/17 504/329/17 503/329/17
f 503/329/18 506/329/18 505/329/18
f 505/329/19 508/329/19 507/329/19
f 507/329/84 510/329/20 509/329/84
f 509/329/21 512/329/21 511/329/21
f 511/329/22 514/329/22 513/329/22
f 514/329/23 515/329/23 513/329/23
f 516/329/24 517/329/24 515/329/24
f 518/329/25 519/329/25 517/329/25
f 520/329/26 521/329/26 519/329/26
f 522/329/27 523/329/27 521/329/27
f 524/329/28 525/329/28 523/329/28
f 526/329/29 527/329/29 525/329/29
f 528/329/30 529/329/30 527/329/30
f 530/329/31 531/329/31 529/329/31
f 532/329/86 533/329/32 531/329/32
f 534/329/33 535/329/33 533/329/33
f 536/329/34 537/329/34 535/329/34
f 538/329/35 539/329/35 537/329/35
f 540/329/36 541/329/36 539/329/36
f 518/329/37 502/329/37 486/329/37
f 542/329/38 543/329/38 541/329/38
f 544/329/39 481/329/39 543/329/39
f 511/329/40 527/329/40 543/329/40
f 273/329/78 274/329/88 276/329/79
f 275/329/2 276/329/2 280/329/2
f 280/329/80 278/329/89 277/329/81
f 278/329/4 274/329/4 273/329/4
f 279/329/5 277/329/5 273/329/5
f 280/329/6 276/329/6 274/329/6
f 281/329/7 282/329/7 284/329/7
f 283/329/8 284/329/8 286/329/8
f 285/329/82 286/329/83 288/329/83
f 287/329/10 288/329/10 290/329/10
f 289/329/11 290/329/11 292/329/11
f 291/329/12 292/329/12 294/329/12
f 293/329/13 294/329/13 296/329/13
f 295/329/14 296/329/14 298/329/14
f 297/329/15 298/329/15 300/329/15
f 299/329/16 300/329/16 302/329/16
f 301/329/17 302/329/17 304/329/17
f 303/329/18 304/329/18 306/329/18
f 305/329/19 306/329/19 308/329/19
f 307/329/84 308/329/20 310/329/20
f 309/329/21 310/329/21 312/329/21
f 311/329/22 312/329/22 314/329/22
f 314/329/23 316/329/23 315/329/23
f 316/329/24 318/329/24 317/329/24
f 318/329/25 320/329/25 319/329/25
f 320/329/26 322/329/26 321/329/26
f 322/329/27 324/329/27 323/329/27
f 324/329/28 326/329/28 325/329/28
f 326/329/29 328/329/29 327/329/29
f 328/329/30 330/329/30 329/329/30
f 330/329/31 332/329/31 331/329/31
f 332/329/32 334/329/32 333/329/32
f 334/329/33 336/329/33 335/329/33
f 336/329/34 338/329/34 337/329/34
f 338/329/35 340/329/35 339/329/35
f 340/329/36 342/329/36 341/329/36
f 286/329/37 284/329/37 282/329/37
f 282/329/37 344/329/37 342/329/37
f 342/329/37 340/329/37 338/329/37
f 338/329/37 336/329/37 334/329/37
f 334/329/37 332/329/37 330/329/37
f 330/329/37 328/329/37 326/329/37
f 326/329/37 324/329/37 322/329/37
f 322/329/37 320/329/37 318/329/37
f 318/329/37 316/329/37 314/329/37
f 314/329/37 312/329/37 310/329/37
f 310/329/37 308/329/37 306/329/37
f 306/329/37 304/329/37 302/329/37
f 302/329/37 300/329/37 298/329/37
f 298/329/37 296/329/37 294/329/37
f 294/329/37 292/329/37 290/329/37
f 290/329/37 288/329/37 286/329/37
f 286/329/37 282/329/37 342/329/37
f 342/329/37 338/329/37 334/329/37
f 334/329/37 330/329/37 326/329/37
f 326/329/37 322/329/37 318/329/37
f 318/329/37 314/329/37 310/329/37
f 310/329/37 306/329/37 302/329/37
f 302/329/37 298/329/37 294/329/37
f 294/329/37 290/329/37 286/329/37
f 286/329/37 342/329/37 334/329/37
f 334/329/37 326/329/37 318/329/37
f 318/329/37 310/329/37 302/329/37
f 302/329/37 294/329/37 286/329/37
f 286/329/37 334/329/37 318/329/37
f 342/329/38 344/329/38 343/329/38
f 344/329/39 282/329/39 281/329/39
f 343/329/40 281/329/90 283/329/40
f 283/329/40 285/329/40 287/329/40
f 287/329/40 289/329/40 291/329/40
f 291/329/40 293/329/40 295/329/40
f 295/329/40 297/329/40 299/329/40
f 299/329/40 301/329/40 303/329/40
f 303/329/40 305/329/40 307/329/40
f 307/329/40 309/329/40 311/329/40
f 311/329/40 313/329/91 315/329/40
f 315/329/40 317/329/40 319/329/40
f 319/329/40 321/329/40 323/329/40
f 323/329/40 325/329/40 327/329/40
f 327/329/40 329/329/40 331/329/40
f 331/329/40 333/329/40 335/329/40
f 335/329/40 337/329/40 339/329/40
f 339/329/40 341/329/40 343/329/40
f 343/329/40 283/329/40 287/329/40
f 287/329/40 291/329/40 295/329/40
f 295/329/40 299/329/40 303/329/40
f 303/329/40 307/329/40 311/329/40
f 311/329/40 315/329/40 319/329/40
f 319/329/40 323/329/40 327/329/40
f 327/329/40 331/329/40 335/329/40
f 335/329/40 339/329/40 343/329/40
f 343/329/40 287/329/40 295/329/40
f 295/329/40 303/329/40 311/329/40
f 311/329/40 319/329/40 327/329/40
f 327/329/40 335/329/40 343/329/40
f 343/329/40 295/329/40 311/329/40
f 353/329/46 354/329/46 356/329/46
f 355/329/47 356/329/47 358/329/47
f 357/329/48 358/329/48 360/329/48
f 359/329/49 360/329/49 362/329/49
f 361/329/50 362/329/50 364/329/50
f 363/329/51 364/329/51 366/329/51
f 365/329/52 366/329/52 368/329/52
f 367/329/53 368/329/53 370/329/53
f 369/329/54 370/329/54 372/329/54
f 371/329/55 372/329/55 374/329/55
f 373/329/56 374/329/56 376/329/56
f 375/329/57 376/329/57 378/329/57
f 377/329/58 378/329/58 380/329/58
f 379/329/59 380/329/59 382/329/59
f 381/329/60 382/329/60 384/329/60
f 383/329/61 384/329/61 386/329/61
f 386/329/62 388/329/62 387/329/62
f 388/329/63 390/329/63 389/329/63
f 390/329/64 392/329/64 391/329/64
f 392/329/65 394/329/65 393/329/65
f 394/329/66 396/329/66 395/329/66
f 396/329/67 398/329/67 397/329/67
f 398/329/68 400/329/68 399/329/68
f 400/329/69 402/329/69 401/329/69
f 402/329/70 404/329/70 403/329/70
f 404/329/71 406/329/71 405/329/71
f 406/329/72 408/329/72 407/329/72
f 408/329/73 410/329/73 409/329/73
f 410/329/74 412/329/74 411/329/74
f 412/329/75 414/329/75 413/329/75
f 358/329/37 356/329/37 354/329/37
f 354/329/37 416/329/37 414/329/37
f 414/329/37 412/329/92 410/329/37
f 410/329/37 408/329/93 406/329/37
f 406/329/37 404/329/37 402/329/37
f 402/329/37 400/329/37 398/329/37
f 398/329/37 396/329/37 394/329/37
f 394/329/37 392/329/37 390/329/37
f 390/329/37 388/329/92 386/329/37
f 386/329/37 384/329/37 382/329/37
f 382/329/37 380/329/37 378/329/37
f 378/329/37 376/329/37 374/329/37
f 374/329/37 372/329/37 370/329/37
f 370/329/37 368/329/37 366/329/37
f 366/329/37 364/329/94 362/329/37
f 362/329/37 360/329/92 358/329/37
f 358/329/37 354/329/37 414/329/37
f 414/329/37 410/329/37 406/329/37
f 406/329/37 402/329/37 398/329/37
f 398/329/37 394/329/37 390/329/37
f 390/329/37 386/329/37 382/329/37
f 382/329/37 378/329/37 374/329/37
f 374/329/37 370/329/37 366/329/37
f 366/329/37 362/329/37 358/329/37
f 358/329/37 414/329/37 406/329/37
f 406/329/37 398/329/37 390/329/37
f 390/329/37 382/329/37 374/329/37
f 374/329/37 366/329/37 358/329/37
f 358/329/37 406/329/37 390/329/37
f 414/329/76 416/329/76 415/329/76
f 416/329/77 354/329/77 353/329/77
f 415/329/40 353/329/90 355/329/40
f 355/329/40 357/329/40 359/329/40
f 359/329/40 361/329/40 363/329/40
f 363/329/40 365/329/40 367/329/40
f 367/329/40 369/329/40 371/329/40
f 371/329/40 373/329/40 375/329/40
f 375/329/40 377/329/40 379/329/40
f 379/329/40 381/329/40 383/329/40
f 383/329/40 385/329/91 387/329/40
f 387/329/40 389/329/40 391/329/40
f 391/329/40 393/329/40 395/329/40
f 395/329/40 397/329/40 399/329/40
f 399/329/40 401/329/40 403/329/40
f 403/329/40 405/329/40 407/329/40
f 407/329/40 409/329/40 411/329/40
f 411/329/40 413/329/40 415/329/40
f 415/329/40 355/329/40 359/329/40
f 359/329/40 363/329/40 367/329/40
f 367/329/40 371/329/40 375/329/40
f 375/329/40 379/329/40 383/329/40
f 383/329/40 387/329/40 391/329/40
f 391/329/40 395/329/40 399/329/40
f 399/329/40 403/329/40 407/329/40
f 407/329/40 411/329/40 415/329/40
f 415/329/40 359/329/40 367/329/40
f 367/329/40 375/329/40 383/329/40
f 383/329/40 391/329/40 399/329/40
f 399/329/40 407/329/40 415/329/40
f 415/329/40 367/329/40 383/329/40
f 417/329/7 418/329/7 420/329/7
f 419/329/8 420/329/8 422/329/8
f 421/329/82 422/329/83 424/329/82
f 423/329/10 424/329/10 426/329/10
f 425/329/11 426/329/11 428/329/11
f 427/329/12 428/329/12 430/329/12
f 429/329/13 430/329/13 432/329/13
f 431/329/14 432/329/14 434/329/14
f 433/329/15 434/329/15 436/329/15
f 435/329/16 436/329/16 438/329/16
f 437/329/17 438/329/17 440/329/17
f 439/329/18 440/329/18 442/329/18
f 441/329/19 442/329/19 444/329/19
f 443/329/84 444/329/20 446/329/20
f 445/329/21 446/329/21 448/329/21
f 447/329/22 448/329/22 450/329/22
f 450/329/23 452/329/23 451/329/23
f 452/329/24 454/329/24 453/329/24
f 454/329/25 456/329/25 455/329/25
f 456/329/26 458/329/26 457/329/26
f 458/329/27 460/329/27 459/329/27
f 460/329/28 462/329/28 461/329/28
f 462/329/29 464/329/29 463/329/29
f 464/329/30 466/329/30 465/329/30
f 466/329/31 468/329/31 467/329/31
f 468/329/86 470/329/86 469/329/32
f 470/329/33 472/329/33 471/329/33
f 472/329/34 474/329/34 473/329/34
f 474/329/35 476/329/35 475/329/35
f 476/329/36 478/329/36 477/329/87
f 422/329/37 420/329/37 418/329/37
f 418/329/37 480/329/37 478/329/37
f 478/329/37 476/329/92 474/329/37
f 474/329/37 472/329/93 470/329/37
f 470/329/37 468/329/37 466/329/37
f 466/329/37 464/329/37 462/329/37
f 462/329/37 460/329/37 458/329/37
f 458/329/37 456/329/37 454/329/37
f 454/329/37 452/329/92 450/329/37
f 450/329/37 448/329/92 446/329/37
f 446/329/37 444/329/37 442/329/37
f 442/329/37 440/329/37 438/329/37
f 438/329/37 436/329/37 434/329/37
f 434/329/37 432/329/37 430/329/37
f 430/329/37 428/329/94 426/329/37
f 426/329/37 424/329/92 422/329/37
f 422/329/37 418/329/37 478/329/37
f 478/329/37 474/329/37 470/329/37
f 470/329/37 466/329/37 462/329/37
f 462/329/37 458/329/37 454/329/37
f 454/329/37 450/329/37 446/329/37
f 446/329/37 442/329/37 438/329/37
f 438/329/37 434/329/37 430/329/37
f 430/329/37 426/329/37 422/329/37
f 422/329/37 478/329/37 470/329/37
f 470/329/37 462/329/37 454/329/37
f 454/329/37 446/329/37 438/329/37
f 438/329/37 430/329/37 422/329/37
f 422/329/37 470/329/37 454/329/37
f 478/329/38 480/329/38 479/329/38
f 480/329/39 418/329/39 417/329/39
f 479/329/40 417/329/90 419/329/40
f 419/329/40 421/329/40 423/329/40
f 423/329/40 425/329/40 427/329/40
f 427/329/40 429/329/40 431/329/40
f 431/329/40 433/329/40 435/329/40
f 435/329/40 437/329/40 439/329/40
f 439/329/40 441/329/40 443/329/40
f 443/329/40 445/329/40 447/329/40
f 447/329/40 449/329/91 451/329/40
f 451/329/40 453/329/40 455/329/40
f 455/329/40 457/329/40 459/329/40
f 459/329/40 461/329/40 463/329/40
f 463/329/40 465/329/40 467/329/40
f 467/329/40 469/329/40 471/329/40
f 471/329/40 473/329/40 475/329/40
f 475/329/40 477/329/40 479/329/40
f 479/329/40 419/329/40 423/329/40
f 423/329/40 427/329/40 431/329/40
f 431/329/40 435/329/40 439/329/40
f 439/329/40 443/329/40 447/329/40
f 447/329/40 451/329/40 455/329/40
f 455/329/40 459/329/40 463/329/40
f 463/329/40 467/329/40 471/329/40
f 471/329/40 475/329/40 479/329/40
f 479/329/40 423/329/40 431/329/40
f 431/329/40 439/329/40 447/329/40
f 447/329/40 455/329/40 463/329/40
f 463/329/40 471/329/40 479/329/40
f 479/329/40 431/329/40 447/329/40
f 481/329/7 482/329/7 484/329/7
f 483/329/8 484/329/8 486/329/8
f 485/329/82 486/329/83 488/329/83
f 487/329/10 488/329/10 490/329/10
f 489/329/11 490/329/11 492/329/11
f 491/329/12 492/329/12 494/329/12
f 493/329/13 494/329/13 496/329/13
f 495/329/14 496/329/14 498/329/14
f 497/329/15 498/329/15 500/329/15
f 499/329/16 500/329/16 502/329/16
f 501/329/17 502/329/17 504/329/17
f 503/329/18 504/329/18 506/329/18
f 505/329/19 506/329/19 508/329/19
f 507/329/84 508/329/20 510/329/20
f 509/329/21 510/329/21 512/329/21
f 511/329/22 512/329/22 514/329/22
f 514/329/23 516/329/23 515/329/23
f 516/329/24 518/329/24 517/329/24
f 518/329/25 520/329/25 519/329/25
f 520/329/26 522/329/26 521/329/26
f 522/329/27 524/329/27 523/329/27
f 524/329/28 526/329/28 525/329/28
f 526/329/29 528/329/29 527/329/29
f 528/329/30 530/329/30 529/329/30
f 530/329/31 532/329/31 531/329/31
f 532/329/86 534/329/86 533/329/32
f 534/329/33 536/329/33 535/329/33
f 536/329/34 538/329/34 537/329/34
f 538/329/35 540/329/35 539/329/35
f 540/329/36 542/329/36 541/329/36
f 486/329/37 484/329/37 482/329/37
f 482/329/37 544/329/37 542/329/37
f 542/329/37 540/329/37 538/329/37
f 538/329/37 536/329/37 534/329/37
f 534/329/37 532/329/37 530/329/37
f 530/329/37 528/329/37 526/329/37
f 526/329/37 524/329/37 522/329/37
f 522/329/37 520/329/37 518/329/37
f 518/329/37 516/329/37 514/329/37
f 514/329/37 512/329/37 510/329/37
f 510/329/37 508/329/37 506/329/37
f 506/329/37 504/329/37 502/329/37
f 502/329/37 500/329/37 498/329/37
f 498/329/37 496/329/37 494/329/37
f 494/329/37 492/329/37 490/329/37
f 490/329/37 488/329/37 486/329/37
f 486/329/37 482/329/37 542/329/37
f 542/329/37 538/329/37 534/329/37
f 534/329/37 530/329/37 526/329/37
f 526/329/37 522/329/37 518/329/37
f 518/329/37 514/329/37 510/329/37
f 510/329/37 506/329/37 502/329/37
f 502/329/37 498/329/37 494/329/37
f 494/329/37 490/329/37 486/329/37
f 486/329/37 542/329/37 534/329/37
f 534/329/37 526/329/37 518/329/37
f 518/329/37 510/329/37 502/329/37
f 502/329/37 494/329/37 486/329/37
f 486/329/37 534/329/37 518/329/37
f 542/329/38 544/329/38 543/329/38
f 544/329/39 482/329/39 481/329/39
f 543/329/40 481/329/90 483/329/40
f 483/329/40 485/329/40 487/329/40
f 487/329/40 489/329/40 491/329/40
f 491/329/40 493/329/40 495/329/40
f 495/329/40 497/329/40 499/329/40
f 499/329/40 501/329/40 503/329/40
f 503/329/40 505/329/40 507/329/40
f 507/329/40 509/329/40 511/329/40
f 511/329/40 513/329/91 515/329/40
f 515/329/40 517/329/40 519/329/40
f 519/329/40 521/329/40 523/329/40
f 523/329/40 525/329/40 527/329/40
f 527/329/40 529/329/40 531/329/40
f 531/329/40 533/329/40 535/329/40
f 535/329/40 537/329/40 539/329/40
f 539/329/40 541/329/40 543/329/40
f 543/329/40 483/329/40 487/329/40
f 487/329/40 491/329/40 495/329/40
f 495/329/40 499/329/40 503/329/40
f 503/329/40 507/329/40 511/329/40
f 511/329/40 515/329/40 519/329/40
f 519/329/40 523/329/40 527/329/40
f 527/329/40 531/329/40 535/329/40
f 535/329/40 539/329/40 543/329/40
f 543/329/40 487/329/40 495/329/40
f 495/329/40 503/329/40 511/329/40
f 511/329/40 519/329/40 527/329/40
f 527/329/40 535/329/40 543/329/40
f 543/329/40 495/329/40 511/329/40
usemtl マテリアル.004
f 349/329/5 347/329/5 345/329/5
f 347/329/41 352/329/41 348/329/41
f 351/329/42 350/329/42 352/329/42
f 346/329/43 352/329/43 350/329/43
f 345/329/44 348/329/44 346/329/44
f 349/329/45 346/329/45 350/329/45
f 349/329/5 351/329/5 347/329/5
f 347/329/41 351/329/41 352/329/41
f 351/329/42 349/329/42 350/329/42
f 346/329/43 348/329/43 352/329/43
f 345/329/44 347/329/44 348/329/44
f 349/329/45 345/329/45 346/329/45
