# Blender 4.4.1
# www.blender.org
mtllib goal.mtl
o 円柱
v 5.403532 -0.340071 0.000000
v 5.403533 9.617123 0.000000
v 5.395778 -0.340071 0.195090
v 5.395779 9.617123 0.195090
v 5.372815 -0.340071 0.382683
v 5.372816 9.617123 0.382683
v 5.335525 -0.340071 0.555570
v 5.335526 9.617123 0.555570
v 5.285340 -0.340071 0.707107
v 5.285341 9.617123 0.707107
v 5.224190 -0.340071 0.831470
v 5.224191 9.617123 0.831470
v 5.154425 -0.340071 0.923880
v 5.154426 9.617123 0.923880
v 5.078725 -0.340071 0.980785
v 5.078726 9.617123 0.980785
v 5.000000 -0.340071 1.000000
v 5.000001 9.617123 1.000000
v 4.921275 -0.340071 0.980785
v 4.921276 9.617123 0.980785
v 4.845575 -0.340071 0.923880
v 4.845576 9.617123 0.923880
v 4.775810 -0.340071 0.831470
v 4.775811 9.617123 0.831470
v 4.714660 -0.340071 0.707107
v 4.714661 9.617123 0.707107
v 4.664475 -0.340071 0.555570
v 4.664476 9.617123 0.555570
v 4.627185 -0.340071 0.382683
v 4.627186 9.617123 0.382683
v 4.604222 -0.340071 0.195090
v 4.604223 9.617123 0.195090
v 4.596468 -0.340071 0.000000
v 4.596469 9.617123 0.000000
v 4.604222 -0.340071 -0.195090
v 4.604223 9.617123 -0.195090
v 4.627185 -0.340071 -0.382683
v 4.627186 9.617123 -0.382683
v 4.664475 -0.340071 -0.555570
v 4.664476 9.617123 -0.555570
v 4.714660 -0.340071 -0.707107
v 4.714661 9.617123 -0.707107
v 4.775810 -0.340071 -0.831470
v 4.775811 9.617123 -0.831470
v 4.845575 -0.340071 -0.923880
v 4.845576 9.617123 -0.923880
v 4.921275 -0.340071 -0.980785
v 4.921276 9.617123 -0.980785
v 5.000000 -0.340071 -1.000000
v 5.000001 9.617123 -1.000000
v 5.078725 -0.340071 -0.980785
v 5.078726 9.617123 -0.980785
v 5.154425 -0.340071 -0.923880
v 5.154426 9.617123 -0.923880
v 5.224190 -0.340071 -0.831470
v 5.224191 9.617123 -0.831470
v 5.285340 -0.340071 -0.707107
v 5.285341 9.617123 -0.707107
v 5.335525 -0.340071 -0.555570
v 5.335526 9.617123 -0.555570
v 5.372815 -0.340071 -0.382683
v 5.372816 9.617123 -0.382683
v 5.395778 -0.340071 -0.195090
v 5.395779 9.617123 -0.195090
v -4.596468 -0.340070 0.000000
v -4.596467 9.617123 0.000000
v -4.604221 -0.340070 0.195090
v -4.604220 9.617123 0.195090
v -4.627185 -0.340070 0.382683
v -4.627184 9.617123 0.382683
v -4.664475 -0.340070 0.555570
v -4.664474 9.617123 0.555570
v -4.714660 -0.340070 0.707107
v -4.714659 9.617123 0.707107
v -4.775809 -0.340070 0.831470
v -4.775808 9.617123 0.831470
v -4.845575 -0.340070 0.923880
v -4.845574 9.617123 0.923880
v -4.921275 -0.340070 0.980785
v -4.921274 9.617123 0.980785
v -5.000000 -0.340070 1.000000
v -4.999999 9.617123 1.000000
v -5.078725 -0.340070 0.980785
v -5.078724 9.617123 0.980785
v -5.154425 -0.340070 0.923880
v -5.154424 9.617123 0.923880
v -5.224190 -0.340070 0.831470
v -5.224189 9.617123 0.831470
v -5.285339 -0.340070 0.707107
v -5.285338 9.617123 0.707107
v -5.335524 -0.340070 0.555570
v -5.335523 9.617123 0.555570
v -5.372814 -0.340070 0.382683
v -5.372813 9.617123 0.382683
v -5.395778 -0.340070 0.195090
v -5.395777 9.617123 0.195090
v -5.403532 -0.340070 0.000000
v -5.403531 9.617123 0.000000
v -5.395778 -0.340070 -0.195090
v -5.395777 9.617123 -0.195090
v -5.372814 -0.340070 -0.382683
v -5.372813 9.617123 -0.382683
v -5.335524 -0.340070 -0.555570
v -5.335523 9.617123 -0.555570
v -5.285339 -0.340070 -0.707107
v -5.285338 9.617123 -0.707107
v -5.224190 -0.340070 -0.831470
v -5.224189 9.617123 -0.831470
v -5.154425 -0.340070 -0.923880
v -5.154424 9.617123 -0.923880
v -5.078725 -0.340070 -0.980785
v -5.078724 9.617123 -0.980785
v -5.000000 -0.340070 -1.000000
v -4.999999 9.617123 -1.000000
v -4.921275 -0.340070 -0.980785
v -4.921274 9.617123 -0.980785
v -4.845575 -0.340070 -0.923880
v -4.845574 9.617123 -0.923880
v -4.775809 -0.340070 -0.831470
v -4.775808 9.617123 -0.831470
v -4.714660 -0.340070 -0.707107
v -4.714659 9.617123 -0.707107
v -4.664475 -0.340070 -0.555570
v -4.664474 9.617123 -0.555570
v -4.627185 -0.340070 -0.382683
v -4.627184 9.617123 -0.382683
v -4.604221 -0.340070 -0.195090
v -4.604220 9.617123 -0.195090
v -5.042541 9.600912 0.000000
v -5.042542 6.434690 0.000000
v 5.042543 9.600912 0.000000
v 5.042542 6.434690 0.000000
vn 0.9992 -0.0000 0.0397
vn 0.9926 -0.0000 0.1215
vn 0.9775 -0.0000 0.2108
vn 0.9493 -0.0000 0.3144
vn 0.8974 -0.0000 0.4412
vn 0.7981 -0.0000 0.6025
vn 0.6009 -0.0000 0.7993
vn 0.2371 -0.0000 0.9715
vn -0.2371 -0.0000 0.9715
vn -0.6009 -0.0000 0.7993
vn -0.7981 -0.0000 0.6025
vn -0.8974 -0.0000 0.4412
vn -0.9493 -0.0000 0.3144
vn -0.9775 -0.0000 0.2108
vn -0.9926 -0.0000 0.1215
vn -0.9992 -0.0000 0.0397
vn -0.9992 -0.0000 -0.0397
vn -0.9926 -0.0000 -0.1215
vn -0.9775 -0.0000 -0.2108
vn -0.9493 -0.0000 -0.3144
vn -0.8974 -0.0000 -0.4412
vn -0.7981 -0.0000 -0.6025
vn -0.6009 -0.0000 -0.7993
vn -0.2371 -0.0000 -0.9715
vn 0.2371 -0.0000 -0.9715
vn 0.6009 -0.0000 -0.7993
vn 0.7981 -0.0000 -0.6025
vn 0.8974 -0.0000 -0.4412
vn 0.9493 -0.0000 -0.3144
vn 0.9775 -0.0000 -0.2108
vn -0.0000 1.0000 -0.0000
vn 0.9926 -0.0000 -0.1215
vn 0.9992 -0.0000 -0.0397
vn -0.0000 -1.0000 -0.0000
vn -0.0000 -0.0000 1.0000
vn 0.0001 1.0000 -0.0000
vn -0.0001 1.0000 -0.0000
vt 0.060299 0.318561
vt 0.067992 0.398586
vt 0.060299 0.398586
vt 0.067992 0.318561
vt 0.075239 0.398586
vt 0.075239 0.318561
vt 0.081761 0.398586
vt 0.081761 0.318561
vt 0.087307 0.398586
vt 0.025447 0.478612
vt 0.031510 0.558637
vt 0.025447 0.558637
vt 0.031510 0.478612
vt 0.038428 0.558637
vt 0.038428 0.478612
vt 0.045934 0.558637
vt 0.045934 0.478612
vt 0.053740 0.558637
vt 0.053740 0.478612
vt 0.061546 0.558637
vt 0.061546 0.478612
vt 0.069052 0.558637
vt 0.069052 0.478612
vt 0.075970 0.558637
vt 0.075970 0.478612
vt 0.082033 0.558637
vt 0.025447 0.878739
vt 0.031969 0.958765
vt 0.025447 0.958765
vt 0.031969 0.878739
vt 0.039216 0.958765
vt 0.039216 0.878739
vt 0.046909 0.958765
vt 0.046909 0.878739
vt 0.054753 0.958765
vt 0.054753 0.878739
vt 0.062446 0.958765
vt 0.062446 0.878739
vt 0.069693 0.958765
vt 0.069693 0.878739
vt 0.076215 0.958765
vt 0.025447 0.638663
vt 0.030993 0.718688
vt 0.025447 0.718688
vt 0.030993 0.638663
vt 0.037515 0.718688
vt 0.037515 0.638663
vt 0.044762 0.718688
vt 0.044762 0.638663
vt 0.052455 0.718688
vt 0.052455 0.638663
vt 0.060299 0.718688
vt 0.060299 0.638663
vt 0.067992 0.718688
vt 0.067992 0.638663
vt 0.075239 0.718688
vt 0.075239 0.638663
vt 0.081761 0.718688
vt 0.025447 0.318561
vt 0.030993 0.398586
vt 0.025447 0.398586
vt 0.030993 0.318561
vt 0.037515 0.398586
vt 0.037515 0.318561
vt 0.044762 0.398586
vt 0.084129 0.004532
vt 0.100555 0.058682
vt 0.046405 0.075108
vt 0.044762 0.318561
vt 0.052455 0.398586
vt 0.052455 0.318561
vt 0.090651 0.088530
vt 0.096197 0.144844
vt 0.039883 0.150391
vt 0.067992 0.478612
vt 0.060299 0.478612
vt 0.075239 0.478612
vt 0.081761 0.478612
vt 0.087307 0.478612
vt 0.031510 0.638663
vt 0.038428 0.638663
vt 0.045934 0.638663
vt 0.053740 0.638663
vt 0.061546 0.638663
vt 0.069052 0.638663
vt 0.075970 0.638663
vt 0.082033 0.638663
vt 0.025447 0.798714
vt 0.031969 0.798714
vt 0.039216 0.798714
vt 0.046909 0.798714
vt 0.054753 0.798714
vt 0.062446 0.798714
vt 0.069693 0.798714
vt 0.076215 0.878739
vt 0.030993 0.798714
vt 0.037515 0.798714
vt 0.044762 0.798714
vt 0.052455 0.798714
vt 0.060299 0.798714
vt 0.067992 0.798714
vt 0.075239 0.798714
vt 0.081761 0.798714
vt 0.030993 0.478612
vt 0.037515 0.478612
vt 0.044762 0.478612
vt 0.084129 0.163812
vt 0.100555 0.217962
vt 0.046405 0.234389
vt 0.052455 0.478612
vt 0.090651 0.247810
vt 0.096197 0.304124
vt 0.039883 0.309671
vt 0.025447 0.000000
vt 0.000000 1.000000
vt 0.000000 0.000000
vt 0.087307 0.318561
vt 0.082033 0.478612
vt 0.081761 0.638663
vt 0.039883 0.070750
vt 0.034337 0.065204
vt 0.029979 0.058682
vt 0.026977 0.051435
vt 0.025447 0.043742
vt 0.025447 0.035898
vt 0.026977 0.028205
vt 0.029979 0.020958
vt 0.034337 0.014436
vt 0.039883 0.008890
vt 0.046405 0.004532
vt 0.053652 0.001530
vt 0.061345 0.000000
vt 0.069189 0.000000
vt 0.076882 0.001530
vt 0.090651 0.008890
vt 0.096197 0.014436
vt 0.100555 0.020958
vt 0.103557 0.028205
vt 0.105087 0.035898
vt 0.105087 0.043742
vt 0.103557 0.051435
vt 0.096197 0.065204
vt 0.090651 0.070750
vt 0.084129 0.075108
vt 0.076882 0.078110
vt 0.069189 0.079640
vt 0.061345 0.079640
vt 0.053652 0.078110
vt 0.034337 0.144844
vt 0.029979 0.138322
vt 0.026977 0.131075
vt 0.025447 0.123382
vt 0.025447 0.115538
vt 0.026977 0.107845
vt 0.029979 0.100598
vt 0.034337 0.094076
vt 0.039883 0.088530
vt 0.046405 0.084172
vt 0.053652 0.081170
vt 0.076882 0.081170
vt 0.084129 0.084172
vt 0.096197 0.094076
vt 0.100555 0.100598
vt 0.103557 0.107845
vt 0.105087 0.115538
vt 0.105087 0.123382
vt 0.103557 0.131075
vt 0.100555 0.138322
vt 0.090651 0.150391
vt 0.084129 0.154748
vt 0.076882 0.157750
vt 0.069189 0.159280
vt 0.061345 0.159280
vt 0.053652 0.157750
vt 0.046405 0.154748
vt 0.076215 0.798714
vt 0.039883 0.230031
vt 0.034337 0.224484
vt 0.029979 0.217962
vt 0.026977 0.210716
vt 0.025447 0.203022
vt 0.025447 0.195178
vt 0.026977 0.187485
vt 0.029979 0.180239
vt 0.034337 0.173717
vt 0.039883 0.168170
vt 0.046405 0.163812
vt 0.053652 0.160811
vt 0.076882 0.160811
vt 0.090651 0.168170
vt 0.096197 0.173717
vt 0.100555 0.180239
vt 0.103557 0.187485
vt 0.105087 0.195178
vt 0.105087 0.203022
vt 0.103557 0.210715
vt 0.096197 0.224484
vt 0.090651 0.230031
vt 0.084129 0.234388
vt 0.076882 0.237390
vt 0.069189 0.238920
vt 0.061345 0.238920
vt 0.053652 0.237390
vt 0.034337 0.304124
vt 0.029979 0.297602
vt 0.026977 0.290356
vt 0.025447 0.282662
vt 0.025447 0.274819
vt 0.026977 0.267125
vt 0.029979 0.259879
vt 0.034337 0.253357
vt 0.039883 0.247810
vt 0.046405 0.243452
vt 0.053652 0.240451
vt 0.076882 0.240451
vt 0.084129 0.243452
vt 0.096197 0.253357
vt 0.100555 0.259879
vt 0.103557 0.267125
vt 0.105087 0.274819
vt 0.105087 0.282662
vt 0.103557 0.290356
vt 0.100555 0.297602
vt 0.090651 0.309671
vt 0.084129 0.314029
vt 0.076882 0.317030
vt 0.069189 0.318561
vt 0.061345 0.318561
vt 0.053652 0.317030
vt 0.046405 0.314029
vt 0.025447 1.000000
s 1
usemtl マテリアル
f 2/1/1 3/2/1 1/3/1
f 4/4/2 5/5/2 3/2/2
f 6/6/3 7/7/3 5/5/3
f 8/8/4 9/9/4 7/7/4
f 10/10/5 11/11/5 9/12/5
f 12/13/6 13/14/6 11/11/6
f 14/15/7 15/16/7 13/14/7
f 16/17/8 17/18/8 15/16/8
f 18/19/9 19/20/9 17/18/9
f 20/21/10 21/22/10 19/20/10
f 22/23/11 23/24/11 21/22/11
f 24/25/12 25/26/12 23/24/12
f 26/27/13 27/28/13 25/29/13
f 28/30/14 29/31/14 27/28/14
f 30/32/15 31/33/15 29/31/15
f 32/34/16 33/35/16 31/33/16
f 34/36/17 35/37/17 33/35/17
f 36/38/18 37/39/18 35/37/18
f 38/40/19 39/41/19 37/39/19
f 40/42/20 41/43/20 39/44/20
f 42/45/21 43/46/21 41/43/21
f 44/47/22 45/48/22 43/46/22
f 46/49/23 47/50/23 45/48/23
f 48/51/24 49/52/24 47/50/24
f 50/53/25 51/54/25 49/52/25
f 52/55/26 53/56/26 51/54/26
f 54/57/27 55/58/27 53/56/27
f 56/59/28 57/60/28 55/61/28
f 58/62/29 59/63/29 57/60/29
f 60/64/30 61/65/30 59/63/30
f 38/66/31 22/67/31 6/68/31
f 62/69/32 63/70/32 61/65/32
f 64/71/33 1/3/33 63/70/33
f 31/72/34 47/73/34 63/74/34
f 66/3/1 67/75/1 65/76/1
f 68/2/2 69/77/2 67/75/2
f 70/5/3 71/78/3 69/77/3
f 72/7/4 73/79/4 71/78/4
f 74/12/5 75/80/5 73/42/5
f 76/11/6 77/81/6 75/80/6
f 78/14/7 79/82/7 77/81/7
f 80/16/8 81/83/8 79/82/8
f 82/18/9 83/84/9 81/83/9
f 84/20/10 85/85/10 83/84/10
f 86/22/11 87/86/11 85/85/11
f 88/24/12 89/87/12 87/86/12
f 90/88/13 91/30/13 89/27/13
f 92/89/14 93/32/14 91/30/14
f 94/90/15 95/34/15 93/32/15
f 96/91/16 97/36/16 95/34/16
f 98/92/17 99/38/17 97/36/17
f 100/93/18 101/40/18 99/38/18
f 102/94/19 103/95/19 101/40/19
f 104/44/20 105/96/20 103/88/20
f 106/43/21 107/97/21 105/96/21
f 108/46/22 109/98/22 107/97/22
f 110/48/23 111/99/23 109/98/23
f 112/50/24 113/100/24 111/99/24
f 114/52/25 115/101/25 113/100/25
f 116/54/26 117/102/26 115/101/26
f 118/56/27 119/103/27 117/102/27
f 120/61/28 121/104/28 119/10/28
f 122/60/29 123/105/29 121/104/29
f 124/63/30 125/106/30 123/105/30
f 102/107/31 86/108/31 70/109/31
f 126/65/32 127/110/32 125/106/32
f 128/70/33 65/76/33 127/110/33
f 95/111/34 111/112/34 127/113/34
f 130/114/35 131/115/35 129/116/35
f 2/1/1 4/4/1 3/2/1
f 4/4/2 6/6/2 5/5/2
f 6/6/3 8/8/3 7/7/3
f 8/8/4 10/117/4 9/9/4
f 10/10/5 12/13/5 11/11/5
f 12/13/6 14/15/6 13/14/6
f 14/15/7 16/17/7 15/16/7
f 16/17/8 18/19/8 17/18/8
f 18/19/9 20/21/9 19/20/9
f 20/21/10 22/23/10 21/22/10
f 22/23/11 24/25/11 23/24/11
f 24/25/12 26/118/12 25/26/12
f 26/27/13 28/30/13 27/28/13
f 28/30/14 30/32/14 29/31/14
f 30/32/15 32/34/15 31/33/15
f 32/34/16 34/36/16 33/35/16
f 34/36/17 36/38/17 35/37/17
f 36/38/18 38/40/18 37/39/18
f 38/40/19 40/95/19 39/41/19
f 40/42/20 42/45/20 41/43/20
f 42/45/21 44/47/21 43/46/21
f 44/47/22 46/49/22 45/48/22
f 46/49/23 48/51/23 47/50/23
f 48/51/24 50/53/24 49/52/24
f 50/53/25 52/55/25 51/54/25
f 52/55/26 54/57/26 53/56/26
f 54/57/27 56/119/27 55/58/27
f 56/59/28 58/62/28 57/60/28
f 58/62/29 60/64/29 59/63/29
f 60/64/30 62/69/30 61/65/30
f 6/68/31 4/120/36 2/121/31
f 2/121/31 64/122/36 62/123/31
f 62/123/31 60/124/31 58/125/31
f 58/125/31 56/126/31 54/127/31
f 54/127/31 52/128/31 50/129/31
f 50/129/31 48/130/31 46/131/31
f 46/131/31 44/132/31 42/133/31
f 42/133/31 40/134/31 38/66/31
f 38/66/31 36/135/37 34/136/31
f 34/136/31 32/137/37 30/138/31
f 30/138/31 28/139/31 26/140/31
f 26/140/31 24/141/31 22/67/31
f 22/67/31 20/142/31 18/143/31
f 18/143/31 16/144/31 14/145/31
f 14/145/31 12/146/31 10/147/31
f 10/147/31 8/148/31 6/68/31
f 6/68/31 2/121/31 62/123/31
f 62/123/31 58/125/31 54/127/31
f 54/127/31 50/129/31 46/131/31
f 46/131/31 42/133/31 38/66/31
f 38/66/31 34/136/31 30/138/31
f 30/138/31 26/140/31 22/67/31
f 22/67/31 18/143/31 14/145/31
f 14/145/31 10/147/31 6/68/31
f 6/68/31 62/123/31 54/127/31
f 54/127/31 46/131/31 38/66/31
f 38/66/31 30/138/31 22/67/31
f 22/67/31 14/145/31 6/68/31
f 6/68/31 54/127/31 38/66/31
f 62/69/32 64/71/32 63/70/32
f 64/71/33 2/1/33 1/3/33
f 63/74/34 1/149/34 3/150/34
f 3/150/34 5/151/34 7/152/34
f 7/152/34 9/153/34 11/154/34
f 11/154/34 13/155/34 15/156/34
f 15/156/34 17/157/34 19/158/34
f 19/158/34 21/159/34 23/147/34
f 23/147/34 25/146/34 27/160/34
f 27/160/34 29/161/34 31/72/34
f 31/72/34 33/162/34 35/163/34
f 35/163/34 37/164/34 39/165/34
f 39/165/34 41/166/34 43/167/34
f 43/167/34 45/168/34 47/73/34
f 47/73/34 49/169/34 51/170/34
f 51/170/34 53/171/34 55/172/34
f 55/172/34 57/173/34 59/174/34
f 59/174/34 61/175/34 63/74/34
f 63/74/34 3/150/34 7/152/34
f 7/152/34 11/154/34 15/156/34
f 15/156/34 19/158/34 23/147/34
f 23/147/34 27/160/34 31/72/34
f 31/72/34 35/163/34 39/165/34
f 39/165/34 43/167/34 47/73/34
f 47/73/34 51/170/34 55/172/34
f 55/172/34 59/174/34 63/74/34
f 63/74/34 7/152/34 15/156/34
f 15/156/34 23/147/34 31/72/34
f 31/72/34 39/165/34 47/73/34
f 47/73/34 55/172/34 63/74/34
f 63/74/34 15/156/34 31/72/34
f 66/3/1 68/2/1 67/75/1
f 68/2/2 70/5/2 69/77/2
f 70/5/3 72/7/3 71/78/3
f 72/7/4 74/9/4 73/79/4
f 74/12/5 76/11/5 75/80/5
f 76/11/6 78/14/6 77/81/6
f 78/14/7 80/16/7 79/82/7
f 80/16/8 82/18/8 81/83/8
f 82/18/9 84/20/9 83/84/9
f 84/20/10 86/22/10 85/85/10
f 86/22/11 88/24/11 87/86/11
f 88/24/12 90/26/12 89/87/12
f 90/88/13 92/89/13 91/30/13
f 92/89/14 94/90/14 93/32/14
f 94/90/15 96/91/15 95/34/15
f 96/91/16 98/92/16 97/36/16
f 98/92/17 100/93/17 99/38/17
f 100/93/18 102/94/18 101/40/18
f 102/94/19 104/176/19 103/95/19
f 104/44/20 106/43/20 105/96/20
f 106/43/21 108/46/21 107/97/21
f 108/46/22 110/48/22 109/98/22
f 110/48/23 112/50/23 111/99/23
f 112/50/24 114/52/24 113/100/24
f 114/52/25 116/54/25 115/101/25
f 116/54/26 118/56/26 117/102/26
f 118/56/27 120/58/27 119/103/27
f 120/61/28 122/60/28 121/104/28
f 122/60/29 124/63/29 123/105/29
f 124/63/30 126/65/30 125/106/30
f 70/109/31 68/177/36 66/178/31
f 66/178/31 128/179/36 126/180/31
f 126/180/31 124/181/31 122/182/31
f 122/182/31 120/183/31 118/184/31
f 118/184/31 116/185/31 114/186/31
f 114/186/31 112/187/31 110/188/31
f 110/188/31 108/173/31 106/172/31
f 106/172/31 104/189/31 102/107/31
f 102/107/31 100/190/37 98/191/31
f 98/191/31 96/192/37 94/193/31
f 94/193/31 92/194/31 90/195/31
f 90/195/31 88/196/31 86/108/31
f 86/108/31 84/197/31 82/198/31
f 82/198/31 80/199/31 78/200/31
f 78/200/31 76/201/31 74/202/31
f 74/202/31 72/203/31 70/109/31
f 70/109/31 66/178/31 126/180/31
f 126/180/31 122/182/31 118/184/31
f 118/184/31 114/186/31 110/188/31
f 110/188/31 106/172/31 102/107/31
f 102/107/31 98/191/31 94/193/31
f 94/193/31 90/195/31 86/108/31
f 86/108/31 82/198/31 78/200/31
f 78/200/31 74/202/31 70/109/31
f 70/109/31 126/180/31 118/184/31
f 118/184/31 110/188/31 102/107/31
f 102/107/31 94/193/31 86/108/31
f 86/108/31 78/200/31 70/109/31
f 70/109/31 118/184/31 102/107/31
f 126/65/32 128/70/32 127/110/32
f 128/70/33 66/3/33 65/76/33
f 127/113/34 65/204/34 67/205/34
f 67/205/34 69/206/34 71/207/34
f 71/207/34 73/208/34 75/209/34
f 75/209/34 77/210/34 79/211/34
f 79/211/34 81/212/34 83/213/34
f 83/213/34 85/214/34 87/202/34
f 87/202/34 89/201/34 91/215/34
f 91/215/34 93/216/34 95/111/34
f 95/111/34 97/217/34 99/218/34
f 99/218/34 101/219/34 103/220/34
f 103/220/34 105/221/34 107/222/34
f 107/222/34 109/223/34 111/112/34
f 111/112/34 113/224/34 115/225/34
f 115/225/34 117/226/34 119/227/34
f 119/227/34 121/228/34 123/229/34
f 123/229/34 125/230/34 127/113/34
f 127/113/34 67/205/34 71/207/34
f 71/207/34 75/209/34 79/211/34
f 79/211/34 83/213/34 87/202/34
f 87/202/34 91/215/34 95/111/34
f 95/111/34 99/218/34 103/220/34
f 103/220/34 107/222/34 111/112/34
f 111/112/34 115/225/34 119/227/34
f 119/227/34 123/229/34 127/113/34
f 127/113/34 71/207/34 79/211/34
f 79/211/34 87/202/34 95/111/34
f 95/111/34 103/220/34 111/112/34
f 111/112/34 119/227/34 127/113/34
f 127/113/34 79/211/34 95/111/34
f 130/114/35 132/231/35 131/115/35
